<?xml version="1.0" encoding="utf-8"?>
<!-- Generator: Adobe Illustrator 16.2.0, SVG Export Plug-In . SVG Version: 6.00 Build 0)  -->
<!DOCTYPE svg PUBLIC "-//W3C//DTD SVG 1.1//EN" "http://www.w3.org/Graphics/SVG/1.1/DTD/svg11.dtd">
<svg version="1.1" id="Слой_1" xmlns="http://www.w3.org/2000/svg" xmlns:xlink="http://www.w3.org/1999/xlink" x="0px" y="0px"
	 width="28.5px" height="28.5px" viewBox="0 0 28.5 28.5" enable-background="new 0 0 28.5 28.5" xml:space="preserve">
<path fill="#4B92E2" d="M20.627,12.35c-0.091-0.091-0.091-0.229,0-0.32l3.425-3.424c0.091-0.092,0.137-0.228,0.137-0.319
	c0-0.092-0.045-0.229-0.137-0.32l-0.64-0.64c-0.091-0.091-0.228-0.137-0.32-0.137c-0.136,0-0.228,0.045-0.319,0.137l-3.424,3.425
	c-0.091,0.091-0.229,0.091-0.32,0l-3.424-3.425c-0.092-0.091-0.228-0.137-0.319-0.137c-0.092,0-0.229,0.045-0.32,0.137l-0.64,0.64
	c-0.091,0.091-0.137,0.228-0.137,0.32c0,0.091,0.046,0.228,0.137,0.319l3.425,3.424c0.091,0.091,0.091,0.229,0,0.32l-3.425,3.424
	c-0.091,0.092-0.137,0.228-0.137,0.319c0,0.092,0.046,0.229,0.137,0.32l0.64,0.64c0.091,0.091,0.228,0.137,0.32,0.137
	c0.091,0,0.228-0.046,0.319-0.137l3.424-3.425c0.091-0.091,0.229-0.091,0.32,0l3.424,3.425c0.092,0.091,0.228,0.137,0.319,0.137
	c0.092,0,0.229-0.046,0.32-0.137l0.64-0.64c0.091-0.091,0.137-0.228,0.137-0.32c0-0.091-0.045-0.228-0.137-0.319L20.627,12.35z"/>
</svg>
