<?xml version="1.0" encoding="utf-8"?>
<!-- Generator: Adobe Illustrator 16.2.0, SVG Export Plug-In . SVG Version: 6.00 Build 0)  -->
<!DOCTYPE svg PUBLIC "-//W3C//DTD SVG 1.1 Basic//EN" "http://www.w3.org/Graphics/SVG/1.1/DTD/svg11-basic.dtd">
<svg version="1.1" baseProfile="basic" id="Слой_1"
	 xmlns="http://www.w3.org/2000/svg" xmlns:xlink="http://www.w3.org/1999/xlink" x="0px" y="0px" width="146.143px"
	 height="188.652px" viewBox="0 0 146.143 188.652" xml:space="preserve">
<path fill="#0699ED" d="M116.729,126.506c-1.097-11.264-6.209-17.999-15.704-23.971c-3.713-2.335-7.439-4.527-10.854-7.275
	c-0.868,0.505-1.947,0.735-3.221,0.523c-0.772-0.128-1.424-0.389-1.967-0.741c-0.74,0.456-1.64,0.713-2.69,0.651
	c-0.013,0.018-0.026,0.034-0.04,0.052c-0.077-0.03-0.161-0.053-0.239-0.08c-0.112-0.012-0.224-0.021-0.34-0.04
	c-0.501-0.083-0.945-0.227-1.35-0.409c-22.196-5.354-40.066,10.009-46.518,30.697c-3.07,9.844-3.753,20.953-0.059,30.718
	c3.704,9.787,12.709,16.216,22.453,19.082c9.756,2.871,19.819,4.228,29.581,0.654c9.804-3.588,18.35-12.733,24.555-20.817
	c3.148-4.1,6.094-9.251,7.159-14.352C118.439,136.696,117.167,131.004,116.729,126.506z M106.731,141.998
	c-3.793,8.505-11.239,16.34-18.692,21.829c-6.64,4.891-14.32,5.425-22.205,4.022c-8.407-1.496-16.532-4.586-21.356-11.979
	c-4.598-7.043-3.533-16.634-1.888-24.385c1.727-8.125,6.271-16.322,12.629-21.705c7.166-6.064,16.051-6.798,24.829-4.362
	c2.229,0.619,3.856-0.26,4.749-1.717c6.946,4.999,17.245,8.659,20.586,16.635c1.429,3.407,1.431,7.461,1.76,11.086
	C107.469,135.01,108.217,138.665,106.731,141.998z"/>
<circle fill="#0699ED" cx="75.574" cy="138.652" r="40.071"/>
<circle fill="#0699ED" cx="75.574" cy="138.652" r="40.071"/>
<path fill="#4DC5EF" d="M80.184,178.524c5.657-0.751,10.945-2.674,15.603-5.531v-68.354c-4.657-2.857-9.944-4.78-15.603-5.531
	V178.524z"/>
<rect x="26.617" y="129.079" opacity="0.3" fill="#FCFCFC" width="22.361" height="50.354"/>
<rect x="48.978" y="120.114" opacity="0.6" fill="#FCFCFC" width="15.603" height="61.702"/>
<path fill="#EF4136" d="M95.797,24.813c-0.697-0.669-1.828-1.593-2.491-1.817c-1.109-0.374-1.992-0.54-2.572-0.442
	c-1.733,0.289-3.459-0.082-4.68-1.135c-0.526,0.441-0.968,0.977-1.293,1.577c-5.08,1.41-8.607,4.967-7.729,11.156
	c0.883,6.216,5.234,11.367,7.637,17.019c0.855,2.013,2.752,2.645,4.611,2.379c1.393-1.823,3.049-3.491,4.984-4.965
	c0.25-0.189,0.519-0.338,0.797-0.453c3.199-6.345,5.553-15.976,2.592-22.149C97.015,25.757,96.387,25.378,95.797,24.813z
	 M87.567,38.752c-6.449,0-6.449-10,0-10S94.016,38.752,87.567,38.752z"/>
<rect x="64.581" y="103.093" opacity="0.8" fill="#FCFCFC" width="15.604" height="78.725"/>
<rect x="80.184" y="65.377" fill="#4DC5EF" width="15.603" height="67.377"/>
<g>
	<path d="M108.548,46.615c-0.072-0.232-0.273-0.401-0.514-0.435l-4.914-0.688l-2.193-4.284c-0.216-0.422-0.908-0.422-1.125,0
		l-2.192,4.284l-4.914,0.688c-0.241,0.033-0.441,0.201-0.514,0.435c-0.074,0.232-0.009,0.485,0.169,0.651l3.542,3.327l-0.836,4.692
		c-0.042,0.236,0.054,0.475,0.245,0.619c0.192,0.143,0.45,0.166,0.663,0.056l4.4-2.229l4.4,2.229
		c0.089,0.046,0.188,0.068,0.284,0.068c0.134,0,0.267-0.041,0.377-0.124c0.192-0.145,0.287-0.382,0.245-0.619l-0.834-4.693
		l3.542-3.327C108.556,47.1,108.622,46.847,108.548,46.615z M103.723,49.908c-0.156,0.146-0.228,0.361-0.189,0.57l0.672,3.784
		l-3.556-1.803c-0.09-0.045-0.188-0.067-0.286-0.067s-0.196,0.022-0.285,0.067l-3.556,1.803l0.672-3.784
		c0.038-0.209-0.034-0.424-0.19-0.57l-2.83-2.658l3.935-0.551c0.203-0.028,0.381-0.154,0.475-0.337l1.78-3.479l1.781,3.479
		c0.093,0.183,0.271,0.309,0.474,0.337l3.934,0.551L103.723,49.908z"/>
	<path d="M88.174,28.859c-2.438,0-4.423,1.984-4.423,4.423s1.985,4.423,4.423,4.423c2.438,0,4.424-1.984,4.424-4.423
		S90.612,28.859,88.174,28.859z M88.174,36.442c-1.741,0-3.158-1.417-3.158-3.159s1.417-3.159,3.158-3.159
		c1.742,0,3.159,1.417,3.159,3.159S89.916,36.442,88.174,36.442z"/>
	<path d="M89.753,51.223l-1.889,2.47l-8.708-12.576c-3.285-4.38-2.814-11.575,1.009-15.396c2.049-2.05,4.775-3.18,7.674-3.18
		c0.29,0,0.576,0.021,0.862,0.042c-0.995-0.141-1.909-0.528-2.644-1.162c-2.56,0.375-4.925,1.543-6.787,3.405
		c-4.235,4.234-4.762,12.202-1.14,17.029l9.683,13.981l2.941-3.848c0.212-0.277,0.159-0.674-0.117-0.885
		C90.36,50.893,89.964,50.945,89.753,51.223z"/>
	<path d="M95.797,24.813c-0.697-0.669-1.828-1.593-2.491-1.817c-1.109-0.374-1.992-0.54-2.572-0.442
		c-0.581,0.097-1.158,0.105-1.72,0.056c2.453,0.263,4.729,1.342,6.5,3.112c2.8,2.8,3.89,7.549,2.713,11.817
		c-0.093,0.336,0.104,0.685,0.44,0.776s0.686-0.104,0.777-0.441c1.165-4.225,0.286-8.89-2.169-12.049
		C96.767,25.594,96.27,25.266,95.797,24.813z"/>
</g>
<polyline opacity="0.2" fill="#FCFCFC" points="96.496,66.213 80.184,106.628 80.184,185.847 96.496,187.247 "/>
<polyline opacity="0.05" fill="#2D2D2D" points="80.183,117.277 64.581,145.711 64.581,178.83 80.183,179.815 "/>
</svg>
