<?xml version="1.0" encoding="utf-8"?>
<!-- Generator: Adobe Illustrator 16.2.0, SVG Export Plug-In . SVG Version: 6.00 Build 0)  -->
<!DOCTYPE svg PUBLIC "-//W3C//DTD SVG 1.1//EN" "http://www.w3.org/Graphics/SVG/1.1/DTD/svg11.dtd">
<svg version="1.1" id="Слой_1" xmlns="http://www.w3.org/2000/svg" xmlns:xlink="http://www.w3.org/1999/xlink" x="0px" y="0px"
	 width="245.432px" height="188.652px" viewBox="0 0 245.432 188.652" enable-background="new 0 0 245.432 188.652"
	 xml:space="preserve">
<g>
	<g>
		<path fill="#ED9637" stroke="#FFFFFF" stroke-width="3" stroke-miterlimit="10" d="M58.645,66.452
			c6.652-1.596,10.531-9.203,8.663-16.99c-2.591-10.798-8.775-12.805-15.429-11.209c-6.653,1.598-11.254,6.192-8.664,16.99
			C45.083,63.029,51.991,68.048,58.645,66.452z"/>
		<path fill="#ED9637" stroke="#FFFFFF" stroke-width="3" stroke-miterlimit="10" d="M90.224,80.823L80.861,68.59
			c-0.428-0.56-1.042-0.962-1.725-1.132l-10.61-2.646c-0.232-0.059-0.479,0.023-0.634,0.21c-2.183,2.658-5.063,4.477-8.33,5.26
			c-3.267,0.784-6.659,0.47-9.811-0.908c-0.223-0.096-0.479-0.057-0.661,0.102l-8.253,7.173c-0.532,0.462-0.896,1.099-1.023,1.792
			l-2.792,15.148c-0.192,1.044,0.152,2.104,0.923,2.834c0.771,0.73,1.848,1.02,2.88,0.771L88.47,85.762
			c1.033-0.248,1.861-0.994,2.216-1.994C91.042,82.767,90.869,81.666,90.224,80.823z"/>
	</g>
</g>
<g>
	<g>
		<path fill="#0699ED" stroke="#FFFFFF" stroke-width="2" stroke-miterlimit="10" d="M168.396,133.32
			c6.668,1.525,13.524-3.564,15.311-11.371c2.477-10.824-2.172-15.371-8.841-16.896c-6.671-1.526-12.833,0.546-15.312,11.37
			C157.768,124.229,161.726,131.795,168.396,133.32z"/>
		<path fill="#0699ED" stroke="#FFFFFF" stroke-width="2" stroke-miterlimit="10" d="M190.301,160.227l-2.952-15.119
			c-0.135-0.691-0.505-1.324-1.042-1.781l-8.329-7.086c-0.184-0.154-0.44-0.191-0.661-0.094c-3.137,1.412-6.525,1.762-9.8,1.012
			s-6.174-2.537-8.386-5.172c-0.156-0.187-0.403-0.264-0.636-0.203l-10.581,2.758c-0.684,0.179-1.291,0.586-1.713,1.15
			l-9.233,12.332c-0.637,0.85-0.798,1.953-0.432,2.947c0.364,0.997,1.201,1.733,2.235,1.971l47.765,10.93
			c1.034,0.236,2.107-0.063,2.871-0.801C190.17,162.332,190.504,161.27,190.301,160.227z"/>
	</g>
</g>
<g opacity="0.4">
	<path fill="#AFAFAF" d="M64.681,90.791c0,0-0.036,0.618-0.043,1.77c-0.006,1.152-0.012,2.845,0.113,4.991
		c0.131,2.146,0.26,4.752,0.666,7.713c0.095,0.739,0.191,1.505,0.292,2.291c0.13,0.782,0.263,1.588,0.399,2.413
		c0.23,1.658,0.604,3.378,0.982,5.174c0.728,3.597,1.799,7.427,3.046,11.438c0.267,1.021,0.664,2.009,1.02,3.027
		c0.352,1.02,0.708,2.055,1.067,3.098c0.776,2.068,1.7,4.133,2.567,6.267c0.997,2.071,2.048,4.166,3.135,6.274
		c1.228,2.027,2.493,4.07,3.804,6.104c1.457,1.934,2.925,3.881,4.399,5.838l2.474,2.721l2.659,2.486
		c3.723,3.147,7.965,5.619,12.406,7.319c4.438,1.718,9.069,2.679,13.592,3.023c4.526,0.367,8.938,0.15,13.081-0.35
		c4.143-0.527,8.027-1.341,11.549-2.326c3.523-0.99,6.675-2.162,9.42-3.314c2.745-1.158,5.036-2.395,6.854-3.512
		c1.818-1.119,3.121-2.187,3.901-3.008c0.373-0.424,0.661-0.754,0.78-1.019c0.147-0.25,0.224-0.381,0.224-0.381l0.188,0.068
		c0,0-0.065,0.145-0.192,0.424c-0.104,0.301-0.361,0.67-0.709,1.152c-0.731,0.926-1.984,2.127-3.746,3.422
		c-1.757,1.303-4.039,2.668-6.755,4.024c-2.712,1.371-5.896,2.666-9.46,3.813c-3.562,1.146-7.517,2.139-11.783,2.723
		c-4.258,0.607-8.837,0.81-13.53,0.346c-4.687-0.463-9.499-1.538-14.073-3.454c-2.292-0.941-4.486-2.15-6.603-3.482
		c-1.05-0.678-2.027-1.469-3.042-2.199c-0.963-0.799-1.892-1.641-2.834-2.457l-2.619-2.697l-2.363-2.858
		c-1.45-1.994-2.895-3.98-4.326-5.953c-1.307-2.055-2.594-4.1-3.912-6.094c-1.178-2.082-2.341-4.14-3.484-6.162
		c-1.003-2.096-2.057-4.135-2.963-6.187c-0.832-2.08-1.729-4.094-2.389-6.129c-1.355-4.057-2.36-7.983-3.046-11.651
		c-0.339-1.836-0.655-3.595-0.839-5.285c-0.104-0.844-0.205-1.666-0.303-2.464c-0.059-0.804-0.115-1.583-0.169-2.338
		c-0.131-1.509-0.174-2.926-0.204-4.234c-0.061-1.307-0.029-2.511,0-3.596c0.121-4.342,0.569-6.791,0.569-6.791L64.681,90.791z"/>
</g>
<g>
	<path fill="#EF4136" d="M65.29,82.943c-6.449,0-6.449,10,0,10S71.74,82.943,65.29,82.943z"/>
	<path fill="#FFFFFF" d="M65.305,83.093c0,0-0.121,0.015-0.347,0.041c-0.216,0.047-0.581,0.047-0.95,0.234
		c-0.18,0.098-0.371,0.213-0.563,0.339c-0.189,0.127-0.351,0.369-0.521,0.562c-0.329,0.423-0.526,0.976-0.69,1.507
		c-0.08,0.27-0.132,0.56-0.228,0.832c-0.029,0.301-0.169,0.579-0.197,0.905c-0.158,0.629-0.277,1.354-0.228,2.163
		c0.038,0.816,0.499,1.616,1.215,2.09c0.7,0.536,1.678,0.499,2.493,0.358c-0.164,0.007-0.039,0-0.073,0.001l0.011-0.003l0.022-0.007
		l0.044-0.014l0.089-0.028l0.178-0.056l0.355-0.112l0.354-0.111c0.107-0.042,0.154-0.111,0.23-0.16
		c0.139-0.098,0.27-0.177,0.398-0.255c0.132-0.124,0.265-0.231,0.395-0.336c0.476-0.468,0.841-1.001,0.994-1.642
		c0.141-0.624,0.265-1.252,0.223-1.862c0.038-0.313-0.063-0.589-0.067-0.888c-0.065-0.271-0.097-0.563-0.16-0.837
		c-0.134-0.537-0.32-1.098-0.646-1.521c-0.307-0.452-0.727-0.721-1.093-0.906c-0.366-0.189-0.704-0.192-0.918-0.243
		c-0.22-0.031-0.338-0.048-0.338-0.048L65.305,83.093z M65.29,82.793c0,0,0.125,0.007,0.357,0.021
		c0.232,0.031,0.585-0.026,1.032,0.036c0.223,0.033,0.479,0.061,0.772,0.083c0.289,0.032,0.579,0.153,0.93,0.238
		c0.676,0.208,1.434,0.639,2.08,1.333c0.306,0.351,0.565,0.772,0.783,1.229c0.159,0.468,0.36,0.966,0.403,1.496
		c0.19,1.053,0.014,2.217-0.455,3.299c-0.442,1.098-1.348,2.077-2.416,2.711c-0.281,0.14-0.563,0.277-0.847,0.399
		c-0.325,0.08-0.659,0.142-0.979,0.195c-0.156,0.019-0.334,0.05-0.467,0.045l-0.371-0.04l-0.37-0.04l-0.187-0.02l-0.093-0.01
		l-0.046-0.005l-0.023-0.002l-0.011-0.001c-0.042,0.001,0.076-0.006-0.096,0.003l-0.815-0.225c-0.267-0.058-0.526-0.132-0.772-0.27
		l-0.74-0.323l-0.673-0.433c-0.828-0.628-1.639-1.342-2.195-2.264c-0.559-0.896-0.981-1.964-0.907-2.999
		c-0.021-0.518,0.141-1.013,0.275-1.479c0.188-0.455,0.427-0.88,0.716-1.233c0.615-0.702,1.363-1.138,2.035-1.346
		c0.35-0.087,0.633-0.204,0.931-0.235c0.297-0.032,0.557-0.062,0.781-0.095c0.444-0.063,0.77-0.008,1-0.043
		c0.228-0.02,0.349-0.029,0.349-0.029L65.29,82.793z"/>
</g>
<g>
	<path fill="#0699ED" d="M163.872,151.027c-6.449,0-6.449,10,0,10C170.321,161.027,170.32,151.027,163.872,151.027z"/>
	<path fill="#FFFFFF" d="M163.882,151.127c0,0-0.121,0.015-0.348,0.039c-0.219,0.045-0.577,0.035-0.958,0.203
		c-0.381,0.162-0.812,0.387-1.188,0.805c-0.386,0.388-0.675,0.92-0.915,1.479c-0.115,0.285-0.198,0.598-0.309,0.9
		c-0.047,0.327-0.189,0.643-0.211,1c-0.143,0.696-0.172,1.479-0.038,2.303c0.127,0.83,0.645,1.619,1.38,2.115
		c0.724,0.559,1.713,0.575,2.576,0.51c0.127-0.053,0.445-0.113,0.66-0.17l0.356-0.086c0.111-0.035,0.18-0.099,0.271-0.142
		l0.495-0.246l0.47-0.348c0.574-0.494,1.029-1.104,1.23-1.818c0.195-0.7,0.329-1.418,0.263-2.102
		c0.023-0.353-0.094-0.662-0.124-0.99c-0.094-0.301-0.159-0.617-0.262-0.904c-0.226-0.561-0.503-1.102-0.888-1.485
		c-0.2-0.176-0.376-0.396-0.59-0.504c-0.211-0.117-0.415-0.22-0.604-0.308c-0.379-0.168-0.72-0.16-0.937-0.207
		c-0.223-0.028-0.341-0.045-0.341-0.045H163.882L163.882,151.127z M163.872,150.928c0,0,0.124,0.01,0.354,0.024
		c0.229,0.035,0.58-0.012,1.014,0.07c0.216,0.045,0.461,0.086,0.737,0.129c0.274,0.047,0.542,0.188,0.862,0.291
		c0.616,0.244,1.284,0.692,1.837,1.365c0.268,0.336,0.492,0.733,0.683,1.162c0.135,0.438,0.319,0.899,0.349,1.395
		c0.166,0.979-0.003,2.053-0.416,3.059c-0.396,1.021-1.21,1.929-2.18,2.533l-0.771,0.39c-0.292,0.079-0.592,0.145-0.883,0.204
		c-0.144,0.023-0.299,0.063-0.427,0.064l-0.368-0.014l-0.792-0.025c-1.053-0.221-2.084-0.469-2.917-1.1
		c-0.81-0.604-1.563-1.33-2.03-2.236c-0.474-0.883-0.806-1.893-0.716-2.859c-0.018-0.485,0.144-0.942,0.26-1.383
		c0.173-0.426,0.38-0.828,0.635-1.166c0.54-0.674,1.196-1.129,1.812-1.373c0.32-0.104,0.582-0.242,0.86-0.293
		c0.282-0.045,0.529-0.088,0.746-0.131c0.433-0.084,0.765-0.039,0.992-0.076c0.229-0.02,0.349-0.03,0.349-0.03H163.872
		L163.872,150.928z"/>
</g>
<path fill="#DDDDDD" d="M83.632,45.592c0.118,4.969,0.302,10.063,1.129,14.955c0.411,2.433,1.138,4.861,2.814,6.51
	c2.099,2.063,4.919,2.588,7.533,3.167c1.541,0.341,2.993,0.087,4.537,0.028c1.044-0.039,1.734,0.469,1.784,1.039
	c-0.704,0.515-1.4,1.06-2.087,1.638c-1.756,1.479-1.813,4.125-0.74,5.691c2.049-0.469,4.092-0.965,6.051-1.836
	c0.511-0.227,1.044-0.235,1.55-0.084c19.875-12.79,44.361,0.884,65.265-7.119c0.144-0.076,0.294-0.146,0.457-0.203
	c2.314-0.809,4.491-1.813,5.283-4.168c0.822-2.44,1.623-4.651,2.753-6.766c1.449-13.388,1.038-26.958,1.02-40.484
	c-0.003-2.496-1.729-3.692-3.392-3.599c-0.344-0.455-0.743-0.867-1.226-1.208c-5.607-3.978-14.175-3.152-20.441-3.154
	c-4.944-0.001-9.734,1.22-14.645,1.646c-4.7,0.408-9.15-0.537-13.81-1.026c-9.81-1.03-19.864-0.737-29.691-0.091
	c-4.9,0.323-10.585,0.196-12.625,6.494c-1.245,3.848-1.102,8.341-1.264,12.385C83.676,34.793,83.504,40.196,83.632,45.592z
	 M165.098,57.168c0.254-0.37,0.489-0.755,0.705-1.155c0.732-0.454,1.423-0.981,2.065-1.59c-0.216,1.502-0.777,2.705-2.091,2.738
	C165.552,57.167,165.325,57.166,165.098,57.168z M160.386,50.753c0.276-0.337,0.54-0.696,0.788-1.081
	c0.03-0.047,0.054-0.097,0.083-0.145c-0.114,0.364-0.243,0.715-0.388,1.052C160.71,50.642,160.549,50.698,160.386,50.753z
	 M139.222,44.464c1.447-0.208,2.897-0.377,4.349-0.451c0.009,0.252,0.032,0.51,0.059,0.769
	C142.163,44.679,140.695,44.572,139.222,44.464z M136.795,30.285c1.336-0.23,2.676-0.465,4.022-0.703
	c1.739-0.306,3.481-0.559,5.22-0.724C143.122,29.736,139.927,30.023,136.795,30.285z M103.191,41.159
	c0.313-0.362,0.646-0.7,0.982-1.011c2.721-2.509,6.354-3.187,10.103-3.211C110.624,38.539,106.959,40.082,103.191,41.159z
	 M90.821,20.61c0.092-0.444,0.216-0.861,0.395-1.22c0.279-0.559,0.829-0.884,1.492-1.075C91.917,19,91.296,19.765,90.821,20.61z"/>
<g opacity="0.4">
	<path fill="#AFAFAF" d="M107.134,33.706c18.913-0.235,37.825-0.473,56.737-0.709c3.222-0.04,3.226-5.041,0-5
		c-18.913,0.236-37.825,0.474-56.737,0.709C103.913,28.746,103.909,33.746,107.134,33.706L107.134,33.706z"/>
</g>
<g opacity="0.5">
	<path fill="#FFFFFF" d="M120.609,43.45c14.657-0.236,29.314-0.473,43.972-0.709c3.221-0.052,3.226-5.052,0-5
		c-14.657,0.236-29.314,0.473-43.972,0.709C117.388,38.501,117.383,43.502,120.609,43.45L120.609,43.45z"/>
</g>
</svg>
