<?xml version="1.0" encoding="utf-8"?>
<!-- Generator: Adobe Illustrator 16.2.0, SVG Export Plug-In . SVG Version: 6.00 Build 0)  -->
<!DOCTYPE svg PUBLIC "-//W3C//DTD SVG 1.1 Basic//EN" "http://www.w3.org/Graphics/SVG/1.1/DTD/svg11-basic.dtd">
<svg version="1.1" baseProfile="basic" id="Capa_1" xmlns="http://www.w3.org/2000/svg" xmlns:xlink="http://www.w3.org/1999/xlink"
	 x="0px" y="0px" width="59px" height="56px" viewBox="531.5 -20.5 59 56" xml:space="preserve">
<path fill="#E5E5E5" d="M566.59,7.559c-0.299-2.135-2.959-3.999-5.034-3.833c-5.14,0.411-10.256-0.417-15.399-0.261
	c-1.613,0.049-2.835,0.692-3.675,1.633c-2.055,1.109-3.587,3.73-2.663,6.019c0.593,1.47,0.534,1.856,0.114,3.31
	c-0.62,2.143-0.572,4.185-0.114,6.347c0.448,2.119,2.845,4.012,5.033,3.833c6.021-0.494,14.977,2.632,19.979-1.861
	C569.21,18.811,567.292,12.565,566.59,7.559z M550.68,14.283c0.014-0.104,0.02-0.208,0.031-0.312
	c2.146,0.097,4.29,0.242,6.434,0.291c0.001,0.009,0.003,0.019,0.004,0.028c-0.005-0.051-0.003,0.081,0.005,0.276
	C554.997,14.651,552.84,14.454,550.68,14.283z"/>
<path fill="#0699ED" d="M576.763-7.259c-2.762-2.763-7.318-2.782-10.927-2.633c-1.826,0.075-3.586,0.177-5.373,0.603
	c-0.446,0.106-0.891,0.252-1.336,0.401c-3.012-2.228-8.533-0.896-8.533,4.001v1.827c0,3.131,2.401,4.842,5.22,5.22
	c1.289,0.172,2.574-0.02,3.846-0.334c0.664,0.302,1.391,0.507,2.157,0.595c3.93,0.451,7.615,0.826,11.535,0.035
	C577.773,1.563,580.21-3.812,576.763-7.259z"/>
<g>
	<g>
		<g>
			<path d="M575.992-10.823h-6.024V-13.5h-25.043L536.5-5.075V28h33.468V2.564h6.024c1.107,0,2.008-0.9,2.008-2.007v-9.371
				C578-9.922,577.099-10.823,575.992-10.823z M544.532-11.215v5.747h-5.747L544.532-11.215z M568.629,26.661h-30.79V-4.129h8.032
				v-8.032h22.758v1.338h-16.733c-1.107,0-2.009,0.901-2.009,2.008v9.371c0,1.107,0.901,2.007,2.009,2.007h16.733V26.661z
				 M576.661,0.557c0,0.369-0.301,0.669-0.669,0.669h-24.097c-0.369,0-0.669-0.301-0.669-0.669v-9.371
				c0-0.369,0.3-0.669,0.669-0.669h24.097c0.368,0,0.669,0.301,0.669,0.669V0.557z"/>
			<path d="M571.976-6.807c1.106,0,2.008,0.901,2.008,2.008h1.339c0-1.845-1.501-3.347-3.347-3.347
				c-1.846,0-3.347,1.501-3.347,3.347v1.339c0,1.846,1.501,3.347,3.347,3.347c1.845,0,3.347-1.501,3.347-3.347h-1.339
				c0,1.107-0.901,2.009-2.008,2.009c-1.107,0-2.008-0.901-2.008-2.009v-1.339C569.968-5.905,570.869-6.807,571.976-6.807z"/>
			<path d="M539.177,25.323h28.113V3.903h-28.113V25.323z M540.516,5.242h25.436v18.742h-25.436V5.242z"/>
			<rect x="539.177" y="-2.79" width="1.339" height="1.339"/>
			<rect x="541.854" y="-2.79" width="1.339" height="1.339"/>
			<rect x="539.177" y="-0.113" width="1.339" height="1.339"/>
			<path d="M555.242-8.146h-2.678v8.032h2.678c2.215,0,4.016-1.801,4.016-4.016C559.258-6.344,557.457-8.146,555.242-8.146z
				 M555.242-1.451h-1.339v-5.355h1.339c1.477,0,2.677,1.201,2.677,2.677C557.919-2.652,556.719-1.451,555.242-1.451z"/>
			<path d="M563.943-8.146c-1.845,0-3.347,1.501-3.347,3.347v1.339c0,1.846,1.502,3.347,3.347,3.347
				c1.846,0,3.347-1.501,3.347-3.347v-1.339C567.29-6.644,565.789-8.146,563.943-8.146z M565.952-3.46
				c0,1.107-0.901,2.009-2.009,2.009s-2.008-0.901-2.008-2.009v-1.339c0-1.106,0.9-2.008,2.008-2.008s2.009,0.901,2.009,2.008V-3.46
				z"/>
			<polygon fill="#EF4136" points="544.242,13.943 545.871,11.229 547.5,13.943 549.147,13.943 549.883,7.324 548.552,7.176 
				547.998,12.171 545.871,8.626 543.745,12.171 543.189,7.176 541.859,7.324 542.594,13.943 			"/>
			<rect x="551.226" y="7.25" width="13.387" height="1.339"/>
			<rect x="551.226" y="12.604" width="13.387" height="1.339"/>
			<rect x="541.854" y="15.283" width="22.759" height="1.338"/>
			<rect x="541.854" y="20.637" width="17.403" height="1.339"/>
			<rect x="563.274" y="20.637" width="1.339" height="1.339"/>
			<rect x="560.597" y="20.637" width="1.339" height="1.339"/>
		</g>
	</g>
</g>
</svg>
