<?xml version="1.0" encoding="utf-8"?>
<!-- Generator: Adobe Illustrator 16.2.0, SVG Export Plug-In . SVG Version: 6.00 Build 0)  -->
<!DOCTYPE svg PUBLIC "-//W3C//DTD SVG 1.1 Basic//EN" "http://www.w3.org/Graphics/SVG/1.1/DTD/svg11-basic.dtd">
<svg version="1.1" baseProfile="basic" id="Layer_1"
	 xmlns="http://www.w3.org/2000/svg" xmlns:xlink="http://www.w3.org/1999/xlink" x="0px" y="0px" width="25.5px" height="25.5px"
	 viewBox="0 0 25.5 25.5" xml:space="preserve">
<g>
	<g>
		<path fill="#699EDA" d="M5.93,8.006C6.174,8.179,6.909,8.69,8.138,9.542c1.229,0.851,2.17,1.506,2.823,1.965
			c0.072,0.051,0.224,0.161,0.458,0.33c0.234,0.169,0.427,0.305,0.582,0.41c0.154,0.104,0.341,0.22,0.561,0.35
			c0.218,0.13,0.425,0.227,0.62,0.291c0.194,0.065,0.373,0.097,0.538,0.097h0.011h0.011c0.165,0,0.344-0.032,0.539-0.097
			c0.193-0.064,0.4-0.161,0.62-0.291c0.219-0.129,0.405-0.246,0.56-0.35c0.154-0.104,0.349-0.241,0.582-0.41
			c0.232-0.169,0.386-0.279,0.458-0.33c0.661-0.459,2.342-1.626,5.042-3.501c0.524-0.366,0.962-0.808,1.314-1.325
			c0.352-0.517,0.528-1.059,0.528-1.626c0-0.474-0.171-0.88-0.512-1.218c-0.341-0.338-0.746-0.507-1.212-0.507H5.801
			c-0.554,0-0.979,0.187-1.277,0.561c-0.298,0.374-0.447,0.84-0.447,1.401c0,0.453,0.197,0.943,0.592,1.471
			C5.064,7.29,5.484,7.705,5.93,8.006z"/>
		<path fill="#699EDA" d="M22.306,9.158c-2.355,1.595-4.145,2.834-5.365,3.718c-0.41,0.302-0.742,0.537-0.997,0.706
			c-0.256,0.168-0.594,0.341-1.019,0.516c-0.423,0.177-0.818,0.265-1.185,0.265H13.73h-0.011c-0.366,0-0.761-0.087-1.184-0.265
			c-0.424-0.175-0.764-0.348-1.019-0.516c-0.256-0.169-0.587-0.404-0.997-0.706c-0.969-0.711-2.754-1.95-5.354-3.718
			C4.756,8.886,4.392,8.573,4.077,8.221v8.555c0,0.474,0.169,0.879,0.505,1.217C4.92,18.331,5.326,18.5,5.801,18.5H21.66
			c0.474,0,0.879-0.169,1.217-0.507s0.507-0.743,0.507-1.217V8.221C23.075,8.565,22.716,8.879,22.306,9.158z"/>
	</g>
</g>
</svg>
