<?xml version="1.0" encoding="utf-8"?>
<!-- Generator: Adobe Illustrator 16.2.0, SVG Export Plug-In . SVG Version: 6.00 Build 0)  -->
<!DOCTYPE svg PUBLIC "-//W3C//DTD SVG 1.1 Basic//EN" "http://www.w3.org/Graphics/SVG/1.1/DTD/svg11-basic.dtd">
<svg version="1.1" baseProfile="basic" id="Layer_1"
	 xmlns="http://www.w3.org/2000/svg" xmlns:xlink="http://www.w3.org/1999/xlink" x="0px" y="0px" width="25.5px" height="25.5px"
	 viewBox="0 0 25.5 25.5" xml:space="preserve">
<g id="XMLID_834_">
	<path id="XMLID_835_" fill="#699EDA" d="M7.818,13.185h2.302v9.477c0,0.187,0.152,0.338,0.339,0.338h3.903
		c0.187,0,0.339-0.152,0.339-0.338v-9.432h2.646c0.172,0,0.317-0.13,0.336-0.3l0.402-3.489c0.011-0.096-0.02-0.192-0.084-0.264
		c-0.064-0.072-0.156-0.113-0.253-0.113H14.7V6.876c0-0.659,0.355-0.994,1.055-0.994c0.1,0,1.993,0,1.993,0
		c0.188,0,0.339-0.152,0.339-0.339V2.341c0-0.187-0.151-0.338-0.339-0.338h-2.746C14.982,2.001,14.939,2,14.876,2
		c-0.477,0-2.133,0.094-3.442,1.297c-1.45,1.334-1.248,2.932-1.2,3.208v2.558H7.818c-0.188,0-0.339,0.151-0.339,0.338v3.445
		C7.479,13.033,7.63,13.185,7.818,13.185z"/>
</g>
</svg>
