<?xml version="1.0" encoding="utf-8"?>
<!-- Generator: Adobe Illustrator 16.2.0, SVG Export Plug-In . SVG Version: 6.00 Build 0)  -->
<!DOCTYPE svg PUBLIC "-//W3C//DTD SVG 1.1 Basic//EN" "http://www.w3.org/Graphics/SVG/1.1/DTD/svg11-basic.dtd">
<svg version="1.1" baseProfile="basic" id="Capa_1" xmlns="http://www.w3.org/2000/svg" xmlns:xlink="http://www.w3.org/1999/xlink"
	 x="0px" y="0px" width="59px" height="56px" viewBox="531.5 -20.5 59 56" xml:space="preserve">
<path fill="#EF4136" d="M559.533,6.655c0.686-0.068,1.374,0.233,1.77,1.076c1.098,2.334,3.988,2.381,6.261,2.331
	c1.514-0.034,3.022-0.174,4.532-0.287c2.163-1.564,2.455-4.052,2.288-6.97c-0.173-3.031-0.965-8.635-3.388-11.685
	c-0.055,0.011-0.109,0.023-0.166,0.03c-3.5,0.462-6.959,1.2-10.5,1.26c-0.227,0.004-0.432-0.024-0.62-0.075
	c-0.335,0.327-0.575,0.771-0.64,1.334c-0.356,3.085-0.266,6.257,0.011,9.344C559.177,4.077,559.281,5.377,559.533,6.655z"/>
<path fill="#EF4136" d="M562.01,4.59c-0.165,0-0.32,0.017-0.465,0.046c-0.665-0.125-1.385,0.048-1.859,0.569
	c-0.811,0.89-1.035,1.993-1.035,3.165c-0.001,1.145,0.955,2.1,2.1,2.1c1.054,0,1.936-0.811,2.072-1.831
	C564.682,7.893,564.412,4.59,562.01,4.59z"/>
<path fill="#E5E5E5" d="M559.254,20.595c-1.117-2.173-3.591-2.726-5.782-2.069c-1.182,0.354-1.592,1.391-1.443,2.339
	c-0.111,0.085-0.219,0.184-0.323,0.301c-1.188,1.337-1.806,3.063-1.875,4.845c-0.026,0.674,0.405,1.525,1.04,1.813
	c2.518,1.146,5.326,1.173,7.918,0.212c0.884-0.328,1.547-1.03,1.542-2.025C560.32,24.146,560.116,22.272,559.254,20.595z
	 M554.403,24.54c0.077-0.149,0.167-0.288,0.271-0.405c0.479-0.539,0.616-1.147,0.529-1.711c0.008,0,0.018-0.003,0.025-0.004
	c0.064-0.004,0.111-0.006,0.149-0.006c0.16,0.094,0.244,0.233,0.328,0.451c0.21,0.54,0.313,1.051,0.366,1.57
	C555.52,24.541,554.957,24.584,554.403,24.54z"/>
<path fill="#E5E5E5" d="M573.77,13.41c-11.627-0.346-23.786,3.412-35.142-0.346c-2.578-0.854-3.675,3.204-1.116,4.051
	c11.785,3.9,24.211,0.138,36.258,0.494C576.48,17.69,576.473,13.49,573.77,13.41z"/>
<path fill="#0699ED" d="M551.648,3.825c-1.832-0.634-3.834-0.567-5.733-0.853c-0.663-0.1-1.703-0.366-1.906-0.536
	c0.003-0.028,0.005-0.072,0.006-0.146c0.004-0.405,0.311-0.912,0.488-1.26c0.278-0.548,0.304-1.081,0.166-1.549
	c0.111-0.076,0.226-0.149,0.341-0.217c2.331-1.374,0.219-5.005-2.12-3.626c-3.871,2.282-5.598,6.792-2.571,10.553
	c2.918,3.625,8.063,3.774,11.831,1.474C553.767,6.676,553.347,4.413,551.648,3.825z"/>
<path fill="#EF4136" d="M555.003-3.61c-0.785-1.214-1.315-2.566-2.1-3.78c-0.62-0.959-1.852-1.352-2.873-0.754
	c-0.637,0.373-1.034,1.101-1.045,1.829c-0.859,0.647-1.006,1.766-0.549,2.725c0.013,0.026,0.019,0.039,0.028,0.059
	c0.029,0.08,0.059,0.159,0.086,0.24c0.083,0.24,0.155,0.484,0.235,0.727c0.213,0.647,0.49,1.153,0.917,1.679
	c1.159,1.424,3.189,0.802,4.547,0.149C555.25-1.217,555.588-2.706,555.003-3.61z"/>
<g>
	<g>
		<path d="M573-12h-35c-1.93,0-3.5,1.57-3.5,3.5v21.7V16c0,1.93,1.57,3.5,3.5,3.5h11.762l-1.146,6.3h-2.75
			c-0.8,0-1.52,0.444-1.879,1.161c-0.327,0.656-0.293,1.42,0.092,2.043c0.385,0.623,1.054,0.996,1.786,0.996h19.27
			c0.732,0,1.4-0.373,1.785-0.996c0.387-0.623,0.42-1.387,0.092-2.043c-0.356-0.717-1.076-1.161-1.877-1.161h-2.75l-1.146-6.3H573
			c1.93,0,3.5-1.57,3.5-3.5v-2.8V-8.5C576.5-10.43,574.93-12,573-12z M561.8,27.2h3.335c0.267,0,0.507,0.147,0.627,0.387
			c0.157,0.315,0.03,0.581-0.03,0.682c-0.063,0.099-0.245,0.331-0.597,0.331h-19.27c-0.352,0-0.534-0.232-0.596-0.332
			s-0.188-0.365-0.03-0.682c0.119-0.238,0.359-0.386,0.626-0.386h3.335h5.6c0.387,0,0.7-0.313,0.7-0.7s-0.313-0.7-0.7-0.7h-4.761
			l1.145-6.3h8.632l1.146,6.3H559c-0.387,0-0.7,0.313-0.7,0.7s0.313,0.7,0.7,0.7H561.8z M575.1,16c0,1.158-0.941,2.1-2.1,2.1h-12.6
			H550.6H538c-1.158,0-2.1-0.941-2.1-2.1v-2.1h39.2V16z M575.1,12.5h-39.2v-21c0-1.158,0.942-2.1,2.1-2.1h35
			c1.158,0,2.1,0.942,2.1,2.1V12.5z"/>
	</g>
</g>
<g>
	<g>
		<path d="M553.4,2h-7v-7c0-0.387-0.313-0.7-0.7-0.7c-4.632,0-8.4,3.769-8.4,8.4s3.769,8.399,8.4,8.399s8.4-3.768,8.4-8.399
			C554.1,2.313,553.786,2,553.4,2z M545.7,9.7c-3.86,0-7-3.14-7-7c0-3.623,2.768-6.613,6.3-6.965V2.7c0,0.386,0.313,0.7,0.7,0.7
			h6.965C552.313,6.932,549.323,9.7,545.7,9.7z"/>
	</g>
</g>
<g>
	<g>
		<path d="M548.5-8.5c-0.387,0-0.7,0.313-0.7,0.7v7.7c0,0.386,0.313,0.7,0.7,0.7h7.7c0.386,0,0.7-0.314,0.7-0.7
			C556.9-4.732,553.132-8.5,548.5-8.5z M549.2-0.8v-6.265c3.302,0.329,5.936,2.963,6.265,6.265H549.2z"/>
	</g>
</g>
<g>
	<g>
		<path d="M573-9.2h-14c-0.387,0-0.7,0.313-0.7,0.7v18.9c0,0.387,0.313,0.699,0.7,0.699h14c0.387,0,0.699-0.313,0.699-0.699V-8.5
			C573.699-8.887,573.387-9.2,573-9.2z M572.3,9.7h-12.6V-7.8h12.6V9.7z"/>
	</g>
</g>
<g>
	<g>
		<path d="M566-5.7h-4.2c-0.386,0-0.7,0.313-0.7,0.7s0.314,0.7,0.7,0.7h4.2c0.387,0,0.7-0.313,0.7-0.7S566.387-5.7,566-5.7z"/>
	</g>
</g>
<g>
	<g>
		<path d="M570.2-2.9h-8.4c-0.386,0-0.7,0.314-0.7,0.7c0,0.387,0.314,0.7,0.7,0.7h8.4c0.386,0,0.7-0.313,0.7-0.7
			C570.9-2.586,570.586-2.9,570.2-2.9z"/>
	</g>
</g>
<g>
	<g>
		<path d="M566-0.1h-4.2c-0.386,0-0.7,0.313-0.7,0.7s0.314,0.7,0.7,0.7h4.2c0.387,0,0.7-0.313,0.7-0.7S566.387-0.1,566-0.1z"/>
	</g>
</g>
<g>
	<g>
		<path d="M570.2,2.7h-8.4c-0.386,0-0.7,0.313-0.7,0.7c0,0.387,0.314,0.7,0.7,0.7h8.4c0.386,0,0.7-0.313,0.7-0.7
			C570.9,3.014,570.586,2.7,570.2,2.7z"/>
	</g>
</g>
<g>
	<g>
		<path d="M566,5.5h-4.2c-0.386,0-0.7,0.313-0.7,0.7c0,0.386,0.314,0.7,0.7,0.7h4.2c0.387,0,0.7-0.313,0.7-0.7
			C566.7,5.813,566.387,5.5,566,5.5z"/>
	</g>
</g>
<g>
	<g>
		<path d="M556.9,15.3h-2.8c-0.386,0-0.7,0.313-0.7,0.7s0.314,0.7,0.7,0.7h2.8c0.386,0,0.7-0.313,0.7-0.7S557.286,15.3,556.9,15.3z"
			/>
	</g>
</g>
</svg>
