<?xml version="1.0" encoding="utf-8"?>
<!-- Generator: Adobe Illustrator 16.2.0, SVG Export Plug-In . SVG Version: 6.00 Build 0)  -->
<!DOCTYPE svg PUBLIC "-//W3C//DTD SVG 1.1 Basic//EN" "http://www.w3.org/Graphics/SVG/1.1/DTD/svg11-basic.dtd">
<svg version="1.1" baseProfile="basic" id="Layer_1"
	 xmlns="http://www.w3.org/2000/svg" xmlns:xlink="http://www.w3.org/1999/xlink" x="0px" y="0px" width="25.5px" height="25.5px"
	 viewBox="0 0 25.5 25.5" xml:space="preserve">
<g id="XMLID_7_">
	<path id="XMLID_8_" fill="#699EDA" d="M20.074,11.008c0.023-2.691-2.269-5.157-5.108-5.499c-0.057-0.006-0.118-0.017-0.184-0.027
		c-0.141-0.023-0.286-0.047-0.433-0.047c-0.582,0-0.737,0.409-0.778,0.652c-0.04,0.237-0.002,0.437,0.113,0.592
		c0.193,0.262,0.532,0.309,0.804,0.346c0.081,0.011,0.156,0.021,0.218,0.036c2.551,0.57,3.411,1.466,3.831,3.996
		c0.01,0.063,0.015,0.138,0.02,0.219c0.018,0.302,0.057,0.931,0.733,0.931l0,0c0.057,0,0.117-0.005,0.18-0.015
		c0.629-0.095,0.61-0.67,0.6-0.947c-0.002-0.078-0.005-0.151,0.002-0.201C20.073,11.033,20.074,11.021,20.074,11.008z"/>
	<path id="XMLID_9_" fill="#699EDA" d="M14.185,4.522c0.075,0.005,0.147,0.011,0.207,0.02c4.189,0.645,6.116,2.629,6.65,6.852
		c0.009,0.072,0.01,0.159,0.012,0.252c0.005,0.33,0.017,1.016,0.753,1.03l0.023,0c0.231,0,0.416-0.07,0.547-0.208
		c0.229-0.24,0.213-0.597,0.2-0.883c-0.003-0.07-0.006-0.137-0.005-0.195c0.054-4.318-3.685-8.233-7.999-8.379
		c-0.018,0-0.035,0-0.052,0.003c-0.009,0.001-0.024,0.003-0.051,0.003c-0.043,0-0.096-0.004-0.152-0.008
		C14.25,3.005,14.172,3,14.094,3c-0.687,0-0.817,0.488-0.834,0.78C13.221,4.452,13.873,4.5,14.185,4.522z"/>
	<path id="XMLID_10_" fill="#699EDA" d="M20.84,16.851c-0.089-0.068-0.182-0.139-0.268-0.208c-0.458-0.368-0.944-0.707-1.415-1.035
		c-0.097-0.068-0.195-0.136-0.292-0.205c-0.603-0.423-1.145-0.629-1.657-0.629c-0.689,0-1.291,0.381-1.787,1.132
		c-0.22,0.333-0.487,0.495-0.815,0.495c-0.194,0-0.416-0.055-0.657-0.165c-1.946-0.883-3.335-2.235-4.13-4.021
		c-0.384-0.864-0.259-1.428,0.417-1.887c0.384-0.26,1.099-0.745,1.048-1.674c-0.057-1.055-2.385-4.228-3.365-4.588
		C7.503,3.913,7.066,3.911,6.619,4.062C5.492,4.44,4.683,5.106,4.28,5.986c-0.39,0.85-0.372,1.848,0.051,2.887
		c1.223,3.003,2.943,5.621,5.111,7.781c2.123,2.115,4.732,3.847,7.754,5.149c0.272,0.117,0.558,0.181,0.767,0.228
		c0.071,0.016,0.132,0.03,0.177,0.042c0.024,0.007,0.05,0.01,0.075,0.01l0.024,0l0,0c1.422,0,3.129-1.299,3.653-2.78
		C22.352,18.006,21.513,17.365,20.84,16.851z"/>
	<path id="XMLID_11_" fill="#699EDA" d="M14.814,7.952c-0.244,0.006-0.75,0.019-0.928,0.535c-0.083,0.241-0.073,0.45,0.029,0.622
		c0.151,0.252,0.44,0.33,0.703,0.372c0.954,0.153,1.443,0.68,1.542,1.659c0.045,0.457,0.353,0.775,0.748,0.775h0
		c0.029,0,0.059-0.001,0.088-0.005c0.475-0.056,0.705-0.405,0.684-1.036c0.008-0.659-0.337-1.407-0.924-2.003
		C16.168,8.273,15.459,7.937,14.814,7.952z"/>
</g>
</svg>
