<?xml version="1.0" encoding="utf-8"?>
<!-- Generator: Adobe Illustrator 16.2.0, SVG Export Plug-In . SVG Version: 6.00 Build 0)  -->
<!DOCTYPE svg PUBLIC "-//W3C//DTD SVG 1.1 Basic//EN" "http://www.w3.org/Graphics/SVG/1.1/DTD/svg11-basic.dtd">
<svg version="1.1" baseProfile="basic" id="Capa_1" xmlns="http://www.w3.org/2000/svg" xmlns:xlink="http://www.w3.org/1999/xlink"
	 x="0px" y="0px" width="59px" height="56px" viewBox="531.5 -20.5 59 56" xml:space="preserve">
<path fill="#E5E5E5" d="M576.337-2.634c-0.112-2.528,0.12-5.083-0.354-7.62c-0.039-0.212-0.053-0.424-0.068-0.636
	c-6.781-4.109-26.28-1.262-30.058-1.197c-0.362,0.006-0.697,0.062-1.018,0.141c-3.584-2.261-8.292,3.019-5.36,6.93
	c-1.875,2.327-1.217,6.313,2.122,7.095c1.947,0.456,3.908,0.193,5.345-0.783c1.038-0.132,2.12-0.164,3.162-0.233
	c0.163-0.011,0.327-0.016,0.49-0.026c0.58,0.782,1.115,1.601,1.612,2.42c1.335,2.201,1.762,5.049,3.532,6.964
	c3.682,3.982,11.375,3.294,15.074-0.329c2.629-2.575,5.777-7.922,3.857-11.534C575.305-1.774,575.862-2.171,576.337-2.634z"/>
<path fill="#EF4136" d="M578.03,14.577c-0.039-1.565-0.817-3.005-2.183-3.806c-0.833-0.488-1.983-0.719-3.024-0.556
	c-1.173-0.395-2.499-0.326-3.627,0.335c-1.646,0.964-2.417,2.884-2.07,4.675c-0.508,0.865-0.892,1.794-1.058,2.807
	c-0.325,1.981,0.186,3.899,2.025,4.977c1.565,0.917,4.124,0.835,5.341-0.689c0.071-0.089,0.139-0.182,0.208-0.272
	c0.068,0.003,0.132,0.021,0.201,0.021c2.365,0,4.457-2.004,4.407-4.407C578.229,16.629,578.056,15.609,578.03,14.577z"/>
<path fill="#0699ED" d="M553.737,7.896c-0.791-2.928-3.263-3.809-5.511-2.634c0.193-0.101-0.435-0.108-0.232-0.022
	c-0.416-0.122-0.82-0.329-1.213-0.519c-1.133-0.55-2.172-0.864-3.415-0.943c-0.74-0.047-1.429,0.229-2.015,0.693
	c-0.181-0.02-0.368-0.032-0.563-0.032c-4.037,0-5.204,4.444-3.506,7.021c-0.782,2.251-0.903,4.67,0.226,7.107
	c1.385,2.99,4.432,4.24,7.156,4.379c1.18,0.06,2.404-0.172,3.564-0.635c0.414,0.125,0.871,0.198,1.374,0.198
	c3.511,0,4.851-3.362,4.024-5.934C554.585,13.875,554.516,10.78,553.737,7.896z M545.07,14.133
	c-0.143,0.007-0.285,0.003-0.427-0.004c-0.033-0.008-0.083-0.02-0.145-0.033c0.176-0.33,0.28-0.534,0.021-0.149
	c0.146-0.217,0.278-0.443,0.397-0.674c0.409,0.192,0.819,0.377,1.25,0.515c-0.165,0.071-0.51,0.233-0.671,0.282
	c-0.042,0.013-0.099,0.026-0.157,0.04C545.249,14.116,545.159,14.128,545.07,14.133z"/>
<g>
	<g>
		<path d="M575.694,5.851V-9.663c0-1.944-1.582-3.526-3.526-3.526h-31.027c-1.944,0-3.526,1.582-3.526,3.526V0.915
			c-1.166,0-2.115,0.949-2.115,2.115v21.154c0,1.167,0.949,2.116,2.115,2.116h15.514c1.167,0,2.116-0.949,2.116-2.116h5.91
			c0.665,0,1.278-0.303,1.681-0.831s0.535-1.199,0.359-1.84l-1.386-5.085h4.014v7.756c0,1.167,0.949,2.116,2.115,2.116h7.756
			c1.167,0,2.116-0.949,2.116-2.116V7.966C577.81,6.799,576.86,5.851,575.694,5.851z M553.834,24.184
			c0,0.389-0.316,0.706-0.705,0.706h-15.514c-0.388,0-0.705-0.316-0.705-0.706v-1.41h16.924V24.184z M553.834,21.364H536.91V5.851
			h16.924V21.364z M553.834,4.44H536.91V3.03c0-0.389,0.317-0.705,0.705-0.705h15.514c0.389,0,0.705,0.316,0.705,0.705V4.44z
			 M561.835,21.883c0.059,0.214,0.015,0.438-0.12,0.614c-0.135,0.177-0.338,0.277-0.561,0.277h-5.91v-1.411h6.448L561.835,21.883z
			 M555.245,19.953v-3.525h5.103l0.962,3.525H555.245z M565.822,15.018h-10.578v-4.231h10.578V15.018z M565.822,7.966v1.41h-10.578
			V3.03c0-1.167-0.949-2.115-2.116-2.115h-14.103V-9.663c0-1.167,0.949-2.116,2.115-2.116h31.027c1.167,0,2.116,0.949,2.116,2.116
			V5.851h-6.346C566.771,5.851,565.822,6.799,565.822,7.966z M576.399,24.184c0,0.389-0.317,0.706-0.706,0.706h-7.756
			c-0.389,0-0.706-0.316-0.706-0.706v-1.41h9.167V24.184z M576.399,21.364h-9.167V10.786h9.167V21.364z M576.399,9.376h-9.167v-1.41
			c0-0.389,0.316-0.706,0.706-0.706h7.756c0.388,0,0.706,0.317,0.706,0.706V9.376z"/>
	</g>
</g>
<g>
	<g>
		<rect x="539.147" y="14.312" transform="matrix(-0.707 0.7072 -0.7072 -0.707 934.372 -357.0432)" width="3.989" height="1.41"/>
	</g>
</g>
<g>
	<g>
		
			<rect x="540.799" y="13.606" transform="matrix(-0.7071 0.7071 -0.7071 -0.7071 943.5354 -362.2021)" width="11.967" height="1.41"/>
	</g>
</g>
<g>
	<g>
		
			<rect x="543.085" y="9.377" transform="matrix(-0.7071 0.7071 -0.7071 -0.7071 939.3401 -368.9238)" width="5.983" height="1.41"/>
	</g>
</g>
<g>
	<g>
		
			<rect x="568.617" y="13.96" transform="matrix(-0.7071 0.7072 -0.7072 -0.7071 985.2868 -378.8277)" width="4.985" height="1.411"/>
	</g>
</g>
<g>
	<g>
		
			<rect x="570.026" y="16.784" transform="matrix(-0.7071 0.7071 -0.7071 -0.7071 989.717 -374.9757)" width="4.986" height="1.41"/>
	</g>
</g>
<g>
	<g>
		<rect x="553.662" y="-3.316" transform="matrix(-0.7072 0.707 -0.707 -0.7072 948.4662 -398.0261)" width="5.983" height="1.41"/>
	</g>
</g>
<g>
	<g>
		
			<rect x="560.009" y="-4.727" transform="matrix(-0.7071 0.7071 -0.7071 -0.7071 958.2356 -404.9896)" width="5.983" height="1.411"/>
	</g>
</g>
<g>
	<g>
		<rect x="556.07" y="0.21" transform="matrix(-0.707 0.7072 -0.7072 -0.707 953.2881 -393.0831)" width="3.989" height="1.411"/>
	</g>
</g>
<g>
	<g>
		<rect x="559.59" y="-8.247" transform="matrix(-0.7071 0.7071 -0.7071 -0.7071 953.3599 -409.979)" width="3.999" height="1.41"/>
	</g>
</g>
<g>
	<g>
		<rect x="540.436" y="-10.369" width="1.411" height="1.411"/>
	</g>
</g>
<g>
	<g>
		<rect x="543.256" y="-10.369" width="1.411" height="1.411"/>
	</g>
</g>
<g>
	<g>
		<rect x="546.077" y="-10.369" width="1.41" height="1.411"/>
	</g>
</g>
</svg>
