<?xml version="1.0" encoding="utf-8"?>
<!-- Generator: Adobe Illustrator 16.2.0, SVG Export Plug-In . SVG Version: 6.00 Build 0)  -->
<!DOCTYPE svg PUBLIC "-//W3C//DTD SVG 1.1 Basic//EN" "http://www.w3.org/Graphics/SVG/1.1/DTD/svg11-basic.dtd">
<svg version="1.1" baseProfile="basic" id="Слой_1"
	 xmlns="http://www.w3.org/2000/svg" xmlns:xlink="http://www.w3.org/1999/xlink" x="0px" y="0px" width="389.362px"
	 height="328.369px" viewBox="0 0 389.362 328.369" xml:space="preserve">
<path fill="#0699ED" d="M355.009,180.465c6.63-8.688,7.612-21.1,8.563-31.635c0.987-10.944,1.01-22.908-3.566-33.101
	c-2.055-4.577-6.024-8.416-11.029-9.347c-5.816-1.081-11.629,1.599-17.428,1.778c-7.476,0.231-18.656-6.031-24.939,0.638
	c-0.355,0.377-0.668,0.768-0.957,1.168c-2.469,0.316-4.722,2.077-4.729,5.291c-0.058,25.148-3.298,54.2,9.374,77.127
	c5.254,9.507,16.221,21.709,12.69,33.356c-0.646,0.41-1.275,0.823-1.834,1.261c-2.183,1.711-3.266,4.277-4.087,6.827
	c-0.525,1.63-0.772,3.572-0.619,5.465c-2.759,4.292-5.971,8.306-9.2,11.646c-3.862,3.994-0.012,10.635,5.379,9.24
	c10.429-2.699,21.048-2.548,31.694-2.313c2.793,2.425,6.154,3.604,9.992,1.536c1.058-0.57,1.897-1.402,2.571-2.379
	c1.439-1.062,2.051-2.821,1.905-4.583c0.325-1.393,0.496-2.795,0.57-4.046c0.301-5.084-3.651-9.015-7.889-10.997
	c-2.097-0.981-4.328-1.616-6.355-2.743c-2.382-1.323-3.858-7.362-5.068-10.873c-0.01-0.069-0.022-0.136-0.032-0.205l-0.033,0.013
	c-0.059-0.168-0.117-0.321-0.175-0.476c-0.133-0.705-0.259-1.411-0.372-2.12c0.771-5.11,0.084-10.75-0.007-15.554
	c-0.021-1.137-0.319-2.091-0.801-2.866c0.466-3.079,1.511-5.988,3.561-8.627C346.005,189.041,351.221,185.428,355.009,180.465z
	 M348.622,169.084c-0.039-0.028-0.079-0.055-0.119-0.081c0.489-1.214,0.947-2.443,1.377-3.682c-0.034,0.14-0.062,0.284-0.096,0.424
	C349.494,166.929,349.086,168.027,348.622,169.084z M328.917,195.95c-0.459,1.432-0.814,2.89-1.077,4.366
	c-0.542-0.996-1.097-1.988-1.669-2.973c-0.1-0.171-0.202-0.339-0.301-0.508C326.923,196.798,327.988,196.47,328.917,195.95z"/>
<path fill="#E5E5E5" d="M138.63,49.385c0,0-2.579,109.874-26.663,174.097c-7.059,18.822,167.823,1.568,167.823,1.568
	s35.383-133.024,21.174-178.018C296.258,32.132,138.63,49.385,138.63,49.385z"/>
<path fill="#EF4136" d="M140.199,247.753c-31.354,0.801-62.918,1.637-94.106-2.354c-7.059-0.902-6.972,10.166,0,11.058
	c31.188,3.99,62.752,3.154,94.106,2.353C147.316,258.629,147.334,247.571,140.199,247.753z"/>
<path fill="#EF4136" d="M143.482,228.79c0.699-1.266,1.26-2.502,1.375-3.65c0.181-1.814-0.271-3.576-1.059-5.19
	c1.78-2.979,2.542-6.672,0.573-9.715c-2.285-3.535-5.723-4.724-9.434-4.533c-1.362-1.48-3.542-2.031-5.618-1.667
	c-3.916,0.688-6.693,2.344-8.748,4.607c-0.261-0.29-0.52-0.571-0.773-0.833c-3.096-3.193-10.02-1.043-9.438,3.909
	c0.011,0.095,0.019,0.166,0.029,0.254c-0.015,0.173-0.028,0.348-0.029,0.53c-0.004,0.594-0.028,1.187-0.036,1.781
	c-0.257,0.463-0.814,0.779-1.932,1.287c-5.072,2.303-2.735,8.632,1.604,9.882c-0.191,4.831-0.391,9.662-0.42,14.498
	c-0.033,5.401,7.659,7.683,10.303,2.79c0.056-0.104,0.101-0.21,0.155-0.314c1.385,4.053,8.005,5.634,10.04,1.098
	c0.115-0.256,0.235-0.503,0.359-0.741c0.095,0.246,0.181,0.487,0.287,0.741c1.536,3.635,6.217,3.026,8.684,1.119
	c3.269-2.527,5.334-5.73,6.911-9.497C147.343,232.688,145.643,229.987,143.482,228.79z"/>
<path fill="#FFFFFF" d="M153.679,61.001c0,0-2.072,88.292-21.425,139.9c-5.672,15.125,134.859,1.26,134.859,1.26
	S295.546,95.266,284.127,59.11C280.346,47.137,153.679,61.001,153.679,61.001z"/>
<path fill="none" stroke="#EF4136" stroke-width="4" stroke-miterlimit="10" d="M207.747,100.717l0.641-8.747l-3.593,46.12
	l19.913,1.235c15.458,1.132,28.905-10.483,30.034-25.94c1.131-15.457-10.484-28.902-25.941-30.032l-8.417-0.616l-41.653-3.045
	l-6.714,91.833"/>
<polyline fill="none" stroke="#EF4136" stroke-width="4" stroke-miterlimit="10" points="179.962,169.577 248.837,174.612 
	235.578,150.012 204.145,147.741 203.486,157.119 228.132,158.92 236.38,173.612 182.484,169.651 188.496,87.439 "/>
<path fill="#EF4136" d="M192.819,163.592c-0.14-3.069-0.183-6.132-0.184-9.191c-0.015-1.531,0.006-3.059,0.029-4.586
	c0.028-1.527,0.021-3.058,0.079-4.583c0.1-3.052,0.155-6.107,0.322-9.154l0.215-4.573c0.059-1.525,0.181-3.046,0.272-4.569
	c0.209-3.043,0.358-6.092,0.632-9.131c0.264-3.04,0.466-6.084,0.78-9.121c0.319-3.036,0.567-6.077,0.948-9.108
	c0.344-3.034,0.709-6.066,1.135-9.095l0.163-1.162l1.032,0.13c2.142,0.27,4.277,0.62,6.416,0.935
	c2.136,0.349,4.272,0.699,6.402,1.121c-2.169,0.107-4.333,0.144-6.497,0.178c-2.162,0.001-4.325,0.037-6.483-0.007l1.194-1.032
	c-0.02,3.058-0.1,6.111-0.201,9.163c-0.064,3.055-0.261,6.099-0.387,9.149c-0.131,3.049-0.374,6.091-0.556,9.137
	c-0.17,3.046-0.467,6.084-0.703,9.126c-0.131,1.52-0.231,3.042-0.395,4.56l-0.453,4.556c-0.278,3.039-0.668,6.069-1.013,9.104
	c-0.166,1.517-0.395,3.03-0.589,4.545c-0.2,1.515-0.402,3.03-0.639,4.542C193.892,157.552,193.404,160.576,192.819,163.592z"/>
<path fill="#EF4136" d="M229.316,99.985c0,0,0.294,0.034,0.847,0.098c0.278,0.02,0.613,0.09,1.007,0.182
	c0.399,0.069,0.841,0.209,1.337,0.369c0.981,0.333,2.163,0.836,3.357,1.689c1.193,0.845,2.423,2.003,3.454,3.54
	c1.006,1.543,1.782,3.471,2.066,5.651c0.051,0.56,0.094,1.066,0.086,1.707c-0.029,0.533-0.01,1.024-0.125,1.657
	c-0.155,1.233-0.501,2.36-1.003,3.515c-0.507,1.141-1.22,2.21-2.048,3.215c-0.857,0.982-1.883,1.843-3.021,2.563
	c-1.15,0.704-2.425,1.225-3.756,1.567c-1.337,0.335-2.729,0.407-4.106,0.349l-0.983-0.125c-0.266-0.023-0.64-0.106-1.004-0.191
	c-0.747-0.146-1.384-0.381-2.027-0.621c-1.267-0.535-2.457-1.229-3.491-2.095c-1.027-0.873-1.911-1.88-2.622-2.973
	c-0.674-1.117-1.224-2.279-1.56-3.482c-0.684-2.388-0.59-4.893-0.038-6.923c0.611-2.196,1.654-3.933,2.876-5.332
	c1.245-1.371,2.632-2.336,3.936-2.999c1.306-0.67,2.548-0.996,3.567-1.183c0.514-0.086,0.971-0.159,1.376-0.17
	c0.402-0.034,0.745-0.055,1.023-0.033C229.02,99.976,229.316,99.985,229.316,99.985z M229.316,99.985c0,0-0.296-0.004-0.853-0.012
	c-0.278-0.017-0.62,0.01-1.021,0.05c-0.403,0.019-0.86,0.091-1.365,0.208c-1.003,0.232-2.221,0.61-3.433,1.379
	c-1.213,0.747-2.448,1.829-3.399,3.268c-0.457,0.729-0.898,1.505-1.199,2.368c-0.334,0.846-0.496,1.796-0.603,2.678
	c-0.192,1.97,0.148,3.908,0.963,5.711c0.816,1.795,2.155,3.349,3.766,4.497c0.817,0.562,1.707,1.007,2.63,1.357
	c0.476,0.138,0.953,0.311,1.375,0.381c0.213,0.05,0.416,0.109,0.742,0.135l0.783,0.094c0.993,0.06,1.984-0.003,2.958-0.178
	c0.964-0.214,1.911-0.52,2.802-0.959c1.764-0.899,3.318-2.242,4.385-3.903c0.506-0.821,0.994-1.741,1.249-2.612
	c0.17-0.402,0.258-0.973,0.371-1.475c0.074-0.4,0.128-0.931,0.164-1.388c0.096-1.899-0.316-3.742-1.056-5.296
	c-0.733-1.562-1.799-2.811-2.892-3.725c-1.087-0.937-2.238-1.487-3.197-1.863c-0.483-0.189-0.925-0.326-1.32-0.404
	c-0.391-0.098-0.725-0.174-1.003-0.198C229.61,100.024,229.316,99.985,229.316,99.985z"/>
<path fill="#EAEAEA" d="M241.264,184.429c-12.922-4.167-26.634-1.084-39.896-1.766c-7.31-0.375-15.266,1.345-22.408-0.407
	c-6.014-1.475-11.798-2.556-17.241,1.162c-5.849,3.995-0.326,13.582,5.581,9.548c4.022-2.747,10.437,0.569,14.996,0.914
	c6.356,0.481,12.703-0.69,19.073-0.159c12.286,1.024,24.959-2.498,36.957,1.371C245.13,197.286,248.022,186.608,241.264,184.429z"/>
<path fill="#6D6E71" d="M146.473,50.914c-7.131,0-7.131,11.057,0,11.057C153.603,61.971,153.603,50.914,146.473,50.914z"/>
<path fill="#6D6E71" d="M290.769,45.425c-7.131,0-7.131,11.057,0,11.057S297.9,45.425,290.769,45.425z"/>
<g>
	<path d="M385.309,258.221H365.98c-0.817-4.631-3.268-8.713-7.08-12.253c-9.256-8.168-14.429-19.328-14.429-31.307
		c0-8.713,3.812-17.151,10.89-22.868c7.078-5.717,10.889-14.157,10.889-23.141v-2.995c12.252-1.362,21.78-11.707,21.78-24.23
		c0-12.523-9.528-22.869-21.78-24.229v-2.995c0-4.628-3.539-8.167-8.166-8.167h-54.449c-4.627,0-8.166,3.539-8.166,8.168v2.994
		c-12.252,1.362-21.78,11.707-21.78,24.23s9.528,22.869,21.78,24.229v2.995c0,8.984,4.084,17.424,10.889,23.141
		c6.806,5.717,10.89,13.884,10.89,23.139c0,11.708-5.172,22.868-14.428,31.036c-4.084,3.54-6.534,7.896-7.078,12.253h-19.329
		c-1.635,0-2.723,1.087-2.723,2.721c0,1.633,1.088,2.723,2.723,2.723h21.778h65.339h21.779c1.634,0,2.723-1.09,2.723-2.723
		C388.031,259.308,386.941,258.221,385.309,258.221z M366.251,122.643c9.258,1.361,16.336,9.257,16.336,18.785
		s-7.078,17.423-16.336,18.785V122.643z M295.47,160.485c-9.258-1.634-16.336-9.529-16.336-19.057s7.078-17.424,16.336-18.785
		V160.485z M301.186,258.492c0.544-2.177,1.634-3.812,2.722-5.446h16.063c1.633,0,2.722-1.087,2.722-2.722
		c0-1.631-1.089-2.721-2.722-2.721h-10.889c8.711-8.984,13.611-20.419,13.611-32.67c0-10.617-4.628-20.688-12.795-27.223
		c-5.717-4.628-8.984-11.707-8.984-19.057v-5.444v-43.559v-5.444c0-1.634,1.088-2.723,2.723-2.723h54.448
		c1.633,0,2.723,1.089,2.723,2.723v5.444v43.559v5.444c0,7.351-3.268,14.429-8.985,19.057c-8.166,6.535-12.795,16.608-12.795,27.497
		c0,11.979,4.901,23.684,13.612,32.397h-21.78c-1.632,0-2.723,1.09-2.723,2.721c0,1.635,1.09,2.725,2.723,2.725h26.953
		c1.088,1.632,2.178,3.267,2.721,5.443H301.186L301.186,258.492z"/>
	<path d="M330.86,204.043c-1.632,0-2.723,1.089-2.723,2.723v10.89c0,1.633,1.09,2.723,2.723,2.723c1.634,0,2.724-1.089,2.724-2.723
		v-10.89C333.583,205.133,332.494,204.043,330.86,204.043z"/>
	<path fill="#FFFFFF" d="M343.656,128.633c-1.089-1.088-2.722-1.088-3.812,0l-21.779,21.78c-1.089,1.088-1.089,2.723,0,3.812
		c0.544,0.544,1.361,0.816,1.906,0.816c0.543,0,1.36-0.272,1.906-0.816l21.779-21.78
		C344.745,131.355,344.745,129.722,343.656,128.633z"/>
	<path fill="#FFFFFF" d="M319.971,144.15c0.815,0,1.36-0.272,1.906-0.816l10.889-10.89c1.088-1.088,1.088-2.722,0-3.811
		c-1.089-1.088-2.723-1.088-3.812,0l-10.89,10.89c-1.089,1.089-1.089,2.722,0,3.811C318.609,143.878,319.154,144.15,319.971,144.15z
		"/>
	<path fill="#F1F2F2" d="M339.844,139.523l-10.889,10.889c-1.088,1.089-1.088,2.722,0,3.811c0.545,0.545,1.361,0.817,1.905,0.817
		c0.545,0,1.361-0.271,1.906-0.817l10.89-10.889c1.089-1.089,1.089-2.722,0-3.811C342.567,138.434,340.934,138.434,339.844,139.523z
		"/>
</g>
<g>
	<g>
		<g>
			<path d="M146.498,242.53v-39.564h-39.435c-0.196-0.193-0.403-0.376-0.612-0.557c2.569-1.081,4.376-3.62,4.376-6.577
				c0-2.142-0.966-4.042-2.464-5.351c1.498-1.309,2.464-3.208,2.464-5.35c0-2.957-1.808-5.497-4.376-6.578
				c2.674-2.291,4.376-5.685,4.376-9.473c0-6.883-5.601-12.484-12.484-12.484H46.623c-3.934,0-7.133,3.199-7.133,7.134
				c0,2.142,0.966,4.041,2.464,5.351c-1.498,1.309-2.464,3.208-2.464,5.35c0,2.957,1.809,5.497,4.376,6.578
				c-2.673,2.292-4.376,5.686-4.376,9.474s1.703,7.182,4.376,9.474c-2.568,1.081-4.376,3.621-4.376,6.577
				c0,2.128,0.936,4.043,2.42,5.351c-1.484,1.307-2.42,3.223-2.42,5.351c0,2.957,1.809,5.497,4.376,6.578
				c-2.673,2.291-4.376,5.686-4.376,9.474c0,3.596,1.539,6.835,3.982,9.116c-2.285,0.609-3.982,2.675-3.982,5.151v7.133
				c0,2.95,2.4,5.352,5.351,5.352h5.743l0.77,3.082c0.594,2.385,2.73,4.052,5.188,4.052h12.265c2.46,0,4.595-1.667,5.189-4.054
				l0.771-3.08h40.021l0.771,3.082c0.594,2.385,2.73,4.052,5.188,4.052h12.265c2.46,0,4.595-1.667,5.191-4.054l0.77-3.08h5.742
				c2.95,0,5.351-2.401,5.351-5.352v-7.133C150.064,245.229,148.568,243.269,146.498,242.53z M43.057,190.481
				c0-4.917,4-8.917,8.917-8.917h5.351v-3.567h-5.351h-5.351c-1.966,0-3.566-1.602-3.566-3.567c0-1.967,1.6-3.567,3.566-3.567
				h37.453v-3.567H46.623c-1.966,0-3.566-1.602-3.566-3.567c0-1.967,1.6-3.567,3.566-3.567h51.721c4.917,0,8.917,4.001,8.917,8.918
				s-4,8.917-8.917,8.917H60.891v3.567h37.453h5.351c1.965,0,3.567,1.6,3.567,3.567c0,1.965-1.602,3.566-3.567,3.566H66.242v3.567
				h37.453c1.965,0,3.567,1.6,3.567,3.567c0,1.965-1.602,3.566-3.567,3.566h-5.351h-46.37
				C47.057,199.398,43.057,195.398,43.057,190.481z M43.057,217.233c0-1.967,1.6-3.566,3.566-3.566h37.453v-3.567H46.623
				c-1.966,0-3.566-1.602-3.566-3.567c0-1.967,1.6-3.566,3.566-3.566h5.351h46.37c4.917,0,8.917,4,8.917,8.917
				c0,4.918-4,8.917-8.917,8.917h-46.37h-5.351C44.657,220.8,43.057,219.198,43.057,217.233z M43.057,233.285
				c0-4.917,4-8.917,8.917-8.917h46.37h5.351c1.965,0,3.567,1.599,3.567,3.565c0,1.965-1.602,3.568-3.567,3.568H66.242v3.566h37.453
				c1.965,0,3.567,1.6,3.567,3.567c0,1.965-1.602,3.567-3.567,3.567H51.974C47.057,242.202,43.057,238.201,43.057,233.285z
				 M70.538,262.251c-0.2,0.795-0.911,1.353-1.732,1.353H56.542c-0.821,0-1.53-0.558-1.732-1.353l-0.553-2.216h16.835
				L70.538,262.251z M134.743,262.251c-0.2,0.795-0.911,1.353-1.732,1.353h-12.265c-0.821,0-1.53-0.558-1.732-1.353l-0.553-2.216
				h16.834L134.743,262.251z M135.797,242.202h-17.834v3.565h26.751c0.985,0,1.784,0.799,1.784,1.784v7.133
				c0,0.985-0.799,1.784-1.784,1.784H44.84c-0.985,0-1.784-0.799-1.784-1.784v-7.133c0-0.985,0.799-1.784,1.784-1.784h7.133h51.721
				h10.701v-3.565h-4.559c0.613-1.054,0.991-2.262,0.991-3.567c0-2.127-0.936-4.043-2.42-5.35c1.484-1.309,2.42-3.223,2.42-5.352
				c0-2.957-1.808-5.496-4.376-6.576c2.674-2.292,4.376-5.687,4.376-9.475c0-1.917-0.445-3.725-1.221-5.351h26.19v7.135
				 M139.364,206.532h3.567v35.67h-3.567"/>
			<path d="M51.974,238.634h5.351v-3.567h-5.351c-0.984,0-1.783-0.799-1.783-1.783c0-0.985,0.799-1.784,1.783-1.784h5.351v-3.568
				h-5.351c-2.949,0-5.351,2.401-5.351,5.352C46.623,236.234,49.025,238.634,51.974,238.634z"/>
			<path d="M51.974,195.832h5.351v-3.567h-5.351c-0.984,0-1.783-0.799-1.783-1.783s0.799-1.784,1.783-1.784h5.351v-3.566h-5.351
				c-2.949,0-5.351,2.4-5.351,5.35S49.025,195.832,51.974,195.832z"/>
			<path d="M103.694,211.882c0-2.95-2.4-5.351-5.351-5.351h-5.351v3.567h5.351c0.985,0,1.784,0.799,1.784,1.783
				c0,0.985-0.799,1.784-1.784,1.784h-5.351v3.566h5.351C101.294,217.233,103.694,214.833,103.694,211.882z"/>
			<path d="M103.694,169.08c0-2.95-2.4-5.351-5.351-5.351h-5.351v3.567h5.351c0.985,0,1.784,0.799,1.784,1.784
				c0,0.984-0.799,1.783-1.784,1.783h-5.351v3.567h5.351C101.294,174.43,103.694,172.029,103.694,169.08z"/>
		</g>
	</g>
</g>
<path d="M-178.014-83.014c-6.449,0-6.449,10,0,10S-171.565-83.014-178.014-83.014z"/>
</svg>
