<?xml version="1.0" encoding="utf-8"?>
<!-- Generator: Adobe Illustrator 16.2.0, SVG Export Plug-In . SVG Version: 6.00 Build 0)  -->
<!DOCTYPE svg PUBLIC "-//W3C//DTD SVG 1.1 Basic//EN" "http://www.w3.org/Graphics/SVG/1.1/DTD/svg11-basic.dtd">
<svg version="1.1" baseProfile="basic" id="Layer_1"
	 xmlns="http://www.w3.org/2000/svg" xmlns:xlink="http://www.w3.org/1999/xlink" x="0px" y="0px" width="25.5px" height="25.5px"
	 viewBox="0 0 25.5 25.5" xml:space="preserve">
<g id="XMLID_818_">
	<path id="XMLID_819_" fill="#699EDA" d="M23.034,14.084c0.145-0.665,0.223-1.354,0.223-2.063c0-5.31-4.305-9.614-9.614-9.614
		c-0.561,0-1.11,0.048-1.644,0.141c-0.859-0.541-1.876-0.855-2.966-0.855c-3.079,0-5.575,2.496-5.575,5.575
		c0,1.029,0.28,1.992,0.766,2.82c-0.127,0.625-0.194,1.271-0.194,1.934c0,5.309,4.304,9.614,9.614,9.614
		c0.602,0,1.19-0.056,1.76-0.162c0.785,0.422,1.682,0.662,2.636,0.662c3.079,0,5.575-2.496,5.575-5.575
		C23.614,15.67,23.404,14.831,23.034,14.084z M18.573,16.616c-0.445,0.629-1.102,1.128-1.953,1.482
		c-0.843,0.351-1.854,0.528-3.004,0.528c-1.381,0-2.539-0.243-3.442-0.722c-0.646-0.349-1.179-0.822-1.583-1.405
		c-0.409-0.589-0.616-1.173-0.616-1.737c0-0.352,0.135-0.657,0.401-0.907c0.264-0.248,0.601-0.374,1.003-0.374
		c0.331,0,0.615,0.1,0.847,0.295c0.222,0.188,0.412,0.465,0.564,0.824c0.17,0.39,0.356,0.72,0.552,0.979
		c0.188,0.25,0.459,0.459,0.806,0.623c0.349,0.165,0.818,0.249,1.396,0.249c0.794,0,1.446-0.169,1.937-0.504
		c0.479-0.327,0.711-0.719,0.711-1.199c0-0.38-0.122-0.678-0.372-0.912c-0.262-0.245-0.606-0.435-1.026-0.566
		c-0.437-0.136-1.03-0.283-1.764-0.437c-0.994-0.213-1.839-0.466-2.512-0.751c-0.002-0.001-0.005-0.002-0.008-0.003
		c-0.689-0.293-1.245-0.7-1.651-1.208c-0.413-0.517-0.622-1.165-0.622-1.926c0-0.727,0.22-1.381,0.653-1.946
		C9.322,6.436,9.95,6,10.758,5.701c0.798-0.294,1.747-0.444,2.821-0.444c0.858,0,1.613,0.099,2.243,0.295
		c0.634,0.197,1.168,0.464,1.588,0.792c0.423,0.331,0.737,0.684,0.935,1.051c0.199,0.371,0.301,0.74,0.301,1.097
		c0,0.344-0.132,0.656-0.395,0.928c-0.263,0.273-0.595,0.413-0.987,0.413c-0.356,0-0.635-0.087-0.828-0.258
		c-0.18-0.159-0.367-0.407-0.574-0.764c-0.24-0.456-0.53-0.814-0.863-1.067c-0.323-0.246-0.863-0.371-1.605-0.371
		c-0.689,0-1.25,0.138-1.666,0.411c-0.401,0.263-0.596,0.564-0.596,0.922c0,0.219,0.063,0.402,0.191,0.56
		c0.137,0.167,0.33,0.313,0.573,0.435c0.253,0.127,0.514,0.228,0.774,0.3c0.267,0.074,0.715,0.184,1.33,0.326
		c0.648,0.139,1.251,0.292,1.8,0.456c0.11,0.033,0.22,0.066,0.325,0.1c0.641,0.205,1.194,0.458,1.645,0.751
		c0.461,0.299,0.826,0.685,1.084,1.145c0.26,0.461,0.391,1.031,0.391,1.693C19.246,15.262,19.02,15.984,18.573,16.616z"/>
</g>
</svg>
