<?xml version="1.0" encoding="utf-8"?>
<!-- Generator: Adobe Illustrator 16.2.0, SVG Export Plug-In . SVG Version: 6.00 Build 0)  -->
<!DOCTYPE svg PUBLIC "-//W3C//DTD SVG 1.1//EN" "http://www.w3.org/Graphics/SVG/1.1/DTD/svg11.dtd">
<svg version="1.1" id="Слой_1" xmlns="http://www.w3.org/2000/svg" xmlns:xlink="http://www.w3.org/1999/xlink" x="0px" y="0px"
	 width="225.571px" height="154.826px" viewBox="0 0 225.571 154.826" enable-background="new 0 0 225.571 154.826"
	 xml:space="preserve">
<path fill="#E2E2E2" d="M181.03,104.143c-0.258-0.244-0.532-0.468-0.814-0.681c-0.341-0.674-0.741-1.329-1.22-1.957
	c-4.015-5.275-12.349-5.936-20.509-5.87c-30.228,0.24-60.586,2.285-90.244,6.104c-0.269,0.034-0.515,0.082-0.751,0.136
	c-0.959-0.287-2.075-0.369-3.249-0.136c-3.431,0.682-5,1.476-6.988,3.452c-1.028,1.022-0.861,2.313,0.055,3.31
	c0.004,0.024,0.003,0.049,0.008,0.073c0.125,0.662,0.467,1.229,0.885,1.763c-2.155,3.879-1.796,8.711-1.842,12.403
	c-0.062,4.938,1.567,9.867,8.692,12.409c6.762,2.412,15.488,2.436,23.012,2.796c19.233,0.921,38.886,1.154,58.034-0.514
	c8.235-0.718,16.629-1.751,24.006-4.362c8.01-2.836,9.674-8.034,10.708-13.528c0.402-2.137,0.813-4.479,0.955-6.85
	c0.127-0.07,0.254-0.141,0.376-0.219C185.683,110.221,183.353,106.341,181.03,104.143z M72.585,116.062
	c-0.171-0.381-0.338-0.773-0.505-1.173c0.631,0.321,1.286,0.621,1.964,0.899C73.557,115.877,73.071,115.968,72.585,116.062z
	 M127.675,106.164c1.336-0.017,2.675-0.025,4.013-0.036c-0.049,0.407,0.002,0.811,0.156,1.192c-3.946-0.24-7.898-0.447-11.855-0.615
	c-1.956-0.082-3.92-0.156-5.89-0.218C118.652,106.252,123.24,106.219,127.675,106.164z M99.534,120.328
	c-0.706,0.188-1.418,0.371-2.134,0.546c-0.206-0.27-0.445-0.526-0.707-0.773C97.639,120.182,98.586,120.26,99.534,120.328z
	 M91.366,105.717c0.101-0.01,0.202-0.02,0.304-0.03c0.022,0.265,0.097,0.531,0.224,0.798c-0.138,0.006-0.276,0.012-0.414,0.018
	C91.489,106.24,91.448,105.977,91.366,105.717z M96.503,112.857c-1.08,0.104-2.16,0.211-3.237,0.324
	c-0.506-0.056-1.023-0.114-1.547-0.176C93.311,112.94,94.906,112.889,96.503,112.857z M118.11,132.068
	c-8.824,0.058-17.655-0.136-26.463-0.49c0.383-0.136,0.757-0.286,1.119-0.451c6.416,0.143,12.83,0.279,19.252,0.491
	c13.326,0.439,28.687,0.595,41.281-2.983c0.393,0.518,0.991,0.962,1.798,1.261c-2.49,0.338-4.924,0.578-6.98,0.807
	C138.245,131.799,128.103,132.004,118.11,132.068z M171.064,117.914c-0.194,1.565-0.34,3.788-1.154,5.66
	c0.48-3.404,1.221-6.786,0.662-10.221c-0.025-0.155-0.065-0.315-0.117-0.476c0.337,0.085,0.673,0.169,1.012,0.25
	C171.387,114.724,171.261,116.32,171.064,117.914z"/>
<ellipse opacity="0.2" fill="#565656" cx="133.026" cy="108.183" rx="41.546" ry="9.358"/>
<polyline fill="#FCEED6" points="142.572,46.203 171.572,100.826 79.572,101.826 101.9,46.203 "/>
<path fill="#606060" d="M170.572,104.826c0,2.762-2.238,5-5,5h-64c-2.762,0-5-2.238-5-5v-35c0-2.761,2.238-5,5-5h64
	c2.762,0,5,2.239,5,5V104.826z"/>
<circle fill="#FFFFFF" cx="133.572" cy="86.826" r="6"/>
<path opacity="0.2" fill="#F9EDDC" d="M170.572,104.826v-35c0-2.761-2.238-5-5-5h-64c-2.762,0-5,2.239-5,5l69,40l3.176-1.168
	C169.853,107.741,170.572,106.375,170.572,104.826z"/>
<circle fill="#F9A048" cx="122.072" cy="43.826" r="7.5"/>
<polyline fill="#606060" points="101.9,46.203 107.115,32.826 136.315,32.826 142.572,46.203 101.9,46.203 "/>
<path fill="none" stroke="#606060" stroke-width="2" stroke-miterlimit="10" d="M122.572,33.826c0,0-53-81-50,66"/>
<path fill="#606060" d="M87.572,99.826c0,1.104-0.896,2-2,2h-25c-1.104,0-2-0.896-2-2l0,0c0-1.104,0.896-2,2-2h25
	C86.676,97.826,87.572,98.721,87.572,99.826L87.572,99.826z"/>
</svg>
