<?xml version="1.0" encoding="utf-8"?>
<!-- Generator: Adobe Illustrator 16.2.0, SVG Export Plug-In . SVG Version: 6.00 Build 0)  -->
<!DOCTYPE svg PUBLIC "-//W3C//DTD SVG 1.1 Basic//EN" "http://www.w3.org/Graphics/SVG/1.1/DTD/svg11-basic.dtd">
<svg version="1.1" baseProfile="basic" id="Capa_1" xmlns="http://www.w3.org/2000/svg" xmlns:xlink="http://www.w3.org/1999/xlink"
	 x="0px" y="0px" width="38.5px" height="31.5px" viewBox="0 0 38.5 31.5" xml:space="preserve">
<g>
	<path fill="#2F3030" d="M30.084,19.876L19.944,9.737c-0.145-0.145-0.312-0.218-0.5-0.218c-0.189,0-0.356,0.073-0.501,0.218
		L8.805,19.876c-0.146,0.146-0.218,0.313-0.218,0.501s0.073,0.355,0.218,0.5l1.087,1.087c0.145,0.146,0.312,0.218,0.5,0.218
		c0.188,0,0.356-0.072,0.501-0.218l8.551-8.551l8.551,8.552c0.145,0.145,0.312,0.217,0.5,0.217c0.189,0,0.356-0.073,0.501-0.217
		l1.088-1.088c0.145-0.145,0.217-0.312,0.217-0.5S30.229,20.021,30.084,19.876z"/>
</g>
</svg>
