<?xml version="1.0" encoding="utf-8"?>
<!-- Generator: Adobe Illustrator 16.2.0, SVG Export Plug-In . SVG Version: 6.00 Build 0)  -->
<!DOCTYPE svg PUBLIC "-//W3C//DTD SVG 1.1//EN" "http://www.w3.org/Graphics/SVG/1.1/DTD/svg11.dtd">
<svg version="1.1" id="Capa_1" xmlns="http://www.w3.org/2000/svg" xmlns:xlink="http://www.w3.org/1999/xlink" x="0px" y="0px"
	 width="38.5px" height="31.5px" viewBox="0 0 38.5 31.5" enable-background="new 0 0 38.5 31.5" xml:space="preserve">
<g>
	<path fill="#FFFFFF" d="M21.181,18.399l-6.42-6.42c-0.092-0.092-0.198-0.138-0.317-0.138c-0.12,0-0.226,0.046-0.317,0.138
		l-6.419,6.42c-0.093,0.093-0.139,0.198-0.139,0.317c0,0.118,0.046,0.226,0.139,0.316l0.688,0.688
		c0.092,0.092,0.198,0.138,0.316,0.138c0.119,0,0.226-0.046,0.317-0.138l5.415-5.415l5.415,5.416
		c0.092,0.091,0.197,0.137,0.317,0.137c0.119,0,0.226-0.046,0.316-0.137l0.688-0.689c0.092-0.091,0.138-0.198,0.138-0.316
		C21.318,18.598,21.272,18.492,21.181,18.399z"/>
</g>
</svg>
