<?xml version="1.0" encoding="utf-8"?>
<!-- Generator: Adobe Illustrator 16.2.0, SVG Export Plug-In . SVG Version: 6.00 Build 0)  -->
<!DOCTYPE svg PUBLIC "-//W3C//DTD SVG 1.1//EN" "http://www.w3.org/Graphics/SVG/1.1/DTD/svg11.dtd">
<svg version="1.1" id="Layer_1" xmlns="http://www.w3.org/2000/svg" xmlns:xlink="http://www.w3.org/1999/xlink" x="0px" y="0px"
	 width="80.5px" height="86px" viewBox="0 21.5 80.5 86" enable-background="new 0 21.5 80.5 86" xml:space="preserve">
<path fill="#0EE0B8" d="M58.352,27.886H24.225c-1.488,0-2.625,1.138-2.625,2.625v35.002l16.889,16.189h19.864
	c1.488,0,2.625-1.138,2.625-2.625V30.512C60.978,29.024,59.84,27.886,58.352,27.886z"/>
<path fill="#EF4136" d="M58.352,27.886H24.225c-1.488,0-2.625,1.138-2.625,2.625v35.002l16.889,16.189h19.864
	c1.488,0,2.625-1.138,2.625-2.625V30.512C60.978,29.024,59.84,27.886,58.352,27.886z"/>
<path fill="#F2504C" d="M60.978,69.802v-39.29c0-1.488-1.138-2.625-2.625-2.625H24.225c-1.488,0-2.625,1.138-2.625,2.625"/>
<path fill="#FF5050" d="M60.978,69.802v-39.29c0-1.488-1.138-2.625-2.625-2.625H36.826"/>
<path fill="#F2504C" d="M36.301,66.039v13.126c0,0.175,0,0.35,0.087,0.525l2.013,1.925c0.175,0,0.262,0.087,0.438,0.087h13.738
	L36.301,66.039L36.301,66.039z"/>
<path fill="#FF5050" d="M36.301,66.039v13.126c0,0.175,0,0.35,0.087,0.525l2.013,1.925c0.175,0,0.262,0.087,0.438,0.087h7.001
	l-7.876-13.126L36.301,66.039z"/>
<path fill="#FFFFFF" d="M38.488,81.615L38.488,81.615V68.052c0-1.487-1.137-2.625-2.625-2.625H21.6L38.488,81.615z"/>
<polyline fill="#F9DCDC" points="21.6,65.514 38.488,81.615 38.488,81.615 38.488,68.139 "/>
<path fill="#FC6763" d="M22.825,65.514L22.825,65.514V30.512c0-1.488,1.138-2.625,2.625-2.625h-1.138
	c-1.488,0-2.625,1.138-2.625,2.625v35.002l0,0H22.825z"/>
<g>
	<path fill="#D62521" d="M33.15,46.087h2.888c1.75,0,3.238-1.4,3.238-3.237v-2.8c0-1.75-1.4-3.238-3.238-3.238h-2.8
		c-1.75,0-3.238,1.4-3.238,3.238v2.8C30,44.6,31.4,46.087,33.15,46.087z"/>
	<path fill="#D62521" d="M44.439,39.35h10.676c0.7,0,1.225-0.525,1.225-1.225s-0.525-1.225-1.225-1.225H44.439
		c-0.7,0-1.225,0.525-1.225,1.225C43.126,38.737,43.739,39.35,44.439,39.35z"/>
	<path fill="#D62521" d="M55.027,43.55H44.439c-0.7,0-1.225,0.525-1.225,1.225c0,0.7,0.525,1.225,1.225,1.225h10.676
		c0.7,0,1.225-0.525,1.225-1.225C56.34,44.075,55.727,43.55,55.027,43.55z"/>
	<path fill="#D62521" d="M55.027,50.288H30.438c-0.7,0-1.225,0.524-1.225,1.225s0.525,1.225,1.225,1.225h24.677
		c0.7,0,1.225-0.525,1.225-1.225S55.727,50.288,55.027,50.288z"/>
	<path fill="#D62521" d="M55.027,57.026H30.438c-0.7,0-1.225,0.525-1.225,1.225c0,0.701,0.525,1.226,1.225,1.226h24.677
		c0.7,0,1.225-0.525,1.225-1.226C56.34,57.551,55.727,57.026,55.027,57.026z"/>
	<path fill="#D62521" d="M55.027,63.676H44.439c-0.7,0-1.225,0.525-1.225,1.226c0,0.7,0.525,1.225,1.225,1.225h10.676
		c0.7,0,1.225-0.525,1.225-1.225C56.34,64.201,55.727,63.676,55.027,63.676z"/>
</g>
<g>
	<path fill="#FFFFFF" d="M32.363,44.775h2.8c1.75,0,3.238-1.4,3.238-3.238v-2.8c0-1.75-1.4-3.238-3.238-3.238h-2.8
		c-1.75,0-3.238,1.4-3.238,3.238v2.888C29.125,43.375,30.613,44.775,32.363,44.775z"/>
	<path fill="#FFFFFF" d="M43.563,38.037h10.676c0.7,0,1.225-0.525,1.225-1.225c0-0.7-0.525-1.225-1.225-1.225H43.563
		c-0.7,0-1.225,0.525-1.225,1.225C42.339,37.512,42.864,38.037,43.563,38.037z"/>
	<path fill="#FFFFFF" d="M54.239,42.237H43.563c-0.7,0-1.225,0.525-1.225,1.225c0,0.7,0.525,1.226,1.225,1.226h10.676
		c0.7,0,1.225-0.525,1.225-1.226C55.464,42.762,54.939,42.237,54.239,42.237z"/>
	<path fill="#FFFFFF" d="M54.239,48.975H29.563c-0.7,0-1.225,0.525-1.225,1.226c0,0.7,0.525,1.225,1.225,1.225h24.677
		c0.7,0,1.225-0.525,1.225-1.225C55.464,49.5,54.939,48.975,54.239,48.975z"/>
	<path fill="#FFFFFF" d="M54.239,55.713H29.563c-0.7,0-1.225,0.525-1.225,1.225s0.525,1.225,1.225,1.225h24.677
		c0.7,0,1.225-0.525,1.225-1.225C55.464,56.326,54.939,55.713,54.239,55.713z"/>
	<path fill="#FFFFFF" d="M54.239,62.451H43.563c-0.7,0-1.225,0.525-1.225,1.225s0.525,1.226,1.225,1.226h10.676
		c0.7,0,1.225-0.526,1.225-1.226C55.464,63.064,54.939,62.451,54.239,62.451z"/>
</g>
</svg>
