<?xml version="1.0" encoding="utf-8"?>
<!-- Generator: Adobe Illustrator 16.2.0, SVG Export Plug-In . SVG Version: 6.00 Build 0)  -->
<!DOCTYPE svg PUBLIC "-//W3C//DTD SVG 1.1//EN" "http://www.w3.org/Graphics/SVG/1.1/DTD/svg11.dtd">
<svg version="1.1" id="Слой_1" xmlns="http://www.w3.org/2000/svg" xmlns:xlink="http://www.w3.org/1999/xlink" x="0px" y="0px"
	 width="21.5px" height="21.333px" viewBox="0 0 21.5 21.333" enable-background="new 0 0 21.5 21.333" xml:space="preserve">
<circle fill="#F8F8F8" stroke="#E8E8E8" stroke-miterlimit="10" cx="10.816" cy="10.649" r="9.649"/>
<g>
	<path d="M14.253,8.334c0,0.4,0.012,0.728,0.036,0.984h-0.276c-0.064-0.616-0.144-1.074-0.24-1.374
		c-0.096-0.3-0.264-0.52-0.504-0.66c-0.24-0.14-0.608-0.21-1.104-0.21h-0.648v6.828c0,0.336,0.032,0.58,0.096,0.732
		c0.064,0.152,0.176,0.256,0.336,0.312c0.16,0.056,0.42,0.092,0.78,0.108v0.24c-0.416-0.024-1.004-0.036-1.764-0.036
		c-0.8,0-1.392,0.012-1.776,0.036v-0.24c0.36-0.016,0.62-0.052,0.78-0.108c0.16-0.056,0.272-0.16,0.336-0.312
		c0.064-0.152,0.096-0.396,0.096-0.732V7.074H9.753c-0.496,0-0.864,0.07-1.104,0.21c-0.24,0.14-0.408,0.36-0.504,0.66
		c-0.096,0.3-0.176,0.758-0.24,1.374H7.629c0.024-0.256,0.036-0.584,0.036-0.984c0-0.456-0.028-0.968-0.084-1.536
		c0.664,0.024,1.792,0.036,3.384,0.036c1.584,0,2.708-0.012,3.372-0.036C14.281,7.366,14.253,7.878,14.253,8.334z"/>
</g>
</svg>
