<?xml version="1.0" encoding="utf-8"?>
<!-- Generator: Adobe Illustrator 16.2.0, SVG Export Plug-In . SVG Version: 6.00 Build 0)  -->
<!DOCTYPE svg PUBLIC "-//W3C//DTD SVG 1.1//EN" "http://www.w3.org/Graphics/SVG/1.1/DTD/svg11.dtd">
<svg version="1.1" id="Capa_1" xmlns="http://www.w3.org/2000/svg" xmlns:xlink="http://www.w3.org/1999/xlink" x="0px" y="0px"
	 width="46.5px" height="46.5px" viewBox="0 0 46.5 46.5" enable-background="new 0 0 46.5 46.5" xml:space="preserve">
<g>
	<g>
		<path fill="#6D6D6D" d="M32.719,24.315c-0.205-0.052-0.41,0-0.588,0.127c-0.664,0.563-1.431,1.023-2.274,1.33
			c-0.792,0.307-1.661,0.459-2.581,0.459c-2.07,0-3.962-0.843-5.317-2.198c-1.354-1.355-2.197-3.246-2.197-5.316
			c0-0.869,0.153-1.713,0.409-2.479c0.281-0.817,0.69-1.559,1.227-2.198c0.229-0.282,0.179-0.69-0.103-0.92
			c-0.179-0.128-0.383-0.18-0.588-0.128c-2.172,0.588-4.064,1.892-5.418,3.629c-1.304,1.712-2.097,3.833-2.097,6.16
			c0,2.786,1.125,5.316,2.965,7.157c1.84,1.84,4.371,2.964,7.157,2.964c2.352,0,4.524-0.818,6.262-2.172
			c1.764-1.38,3.042-3.349,3.578-5.598C33.281,24.749,33.077,24.391,32.719,24.315z M28.808,29.657
			c-1.482,1.175-3.374,1.892-5.444,1.892c-2.428,0-4.626-0.997-6.211-2.582c-1.584-1.585-2.582-3.784-2.582-6.212
			c0-2.018,0.665-3.858,1.815-5.342c0.792-1.022,1.79-1.866,2.939-2.453c-0.128,0.281-0.256,0.562-0.358,0.869
			c-0.332,0.92-0.485,1.892-0.485,2.914c0,2.428,0.997,4.651,2.582,6.236c1.584,1.584,3.807,2.582,6.235,2.582
			c1.074,0,2.097-0.179,3.042-0.537c0.333-0.127,0.665-0.255,0.971-0.408C30.699,27.791,29.856,28.838,28.808,29.657z"/>
	</g>
</g>
</svg>
