<?xml version="1.0" encoding="utf-8"?>
<!-- Generator: Adobe Illustrator 16.2.0, SVG Export Plug-In . SVG Version: 6.00 Build 0)  -->
<!DOCTYPE svg PUBLIC "-//W3C//DTD SVG 1.1//EN" "http://www.w3.org/Graphics/SVG/1.1/DTD/svg11.dtd">
<svg version="1.1" id="Capa_1" xmlns="http://www.w3.org/2000/svg" xmlns:xlink="http://www.w3.org/1999/xlink" x="0px" y="0px"
	 width="46.5px" height="46.5px" viewBox="0 0 46.5 46.5" enable-background="new 0 0 46.5 46.5" xml:space="preserve">
<g>
	<g>
		<path fill="#4B92E2" d="M24.712,18.289c-0.899-0.899-2.169-1.481-3.545-1.481s-2.646,0.555-3.545,1.481
			c-0.899,0.899-1.481,2.169-1.481,3.545s0.582,2.646,1.481,3.545s2.169,1.481,3.545,1.481s2.646-0.555,3.545-1.481
			c0.899-0.899,1.481-2.169,1.481-3.545S25.638,19.188,24.712,18.289z M23.759,24.426c-0.661,0.662-1.587,1.059-2.592,1.059
			c-1.005,0-1.932-0.397-2.593-1.059c-0.661-0.661-1.058-1.587-1.058-2.592c0-1.005,0.397-1.932,1.058-2.593
			s1.587-1.058,2.593-1.058c1.005,0,1.932,0.397,2.592,1.058c0.662,0.661,1.059,1.587,1.059,2.593
			C24.818,22.838,24.421,23.765,23.759,24.426z"/>
	</g>
</g>
<g>
	<g>
		<path fill="#4B92E2" d="M30.479,21.146h-2.037c-0.371,0-0.688,0.317-0.688,0.688s0.317,0.688,0.688,0.688h2.037
			c0.37,0,0.688-0.317,0.688-0.688S30.849,21.146,30.479,21.146z"/>
	</g>
</g>
<g>
	<g>
		<path fill="#4B92E2" d="M21.167,28.421c-0.371,0-0.688,0.317-0.688,0.688v2.037c0,0.37,0.317,0.688,0.688,0.688
			s0.688-0.318,0.688-0.688v-2.037C21.855,28.738,21.538,28.421,21.167,28.421z"/>
	</g>
</g>
<g>
	<g>
		<path fill="#4B92E2" d="M28.231,27.945l-1.455-1.455c-0.239-0.265-0.688-0.265-0.953,0c-0.265,0.265-0.265,0.688,0,0.953
			l1.455,1.455c0.265,0.265,0.688,0.265,0.953,0C28.496,28.632,28.496,28.209,28.231,27.945z"/>
	</g>
</g>
<g>
	<g>
		<path fill="#4B92E2" d="M21.167,11.833c-0.371,0-0.688,0.317-0.688,0.688v2.037c0,0.371,0.317,0.688,0.688,0.688
			s0.688-0.317,0.688-0.688v-2.037C21.855,12.151,21.538,11.833,21.167,11.833z"/>
	</g>
</g>
<g>
	<g>
		<path fill="#4B92E2" d="M28.257,14.77c-0.265-0.265-0.688-0.265-0.953,0l-1.455,1.455c-0.264,0.265-0.264,0.688,0,0.953
			c0.239,0.265,0.688,0.265,0.953,0l1.455-1.455C28.521,15.458,28.521,15.035,28.257,14.77z"/>
	</g>
</g>
<g>
	<g>
		<path fill="#4B92E2" d="M13.892,21.146h-2.037c-0.371,0-0.688,0.317-0.688,0.688s0.291,0.688,0.688,0.688h2.037
			c0.371,0,0.688-0.317,0.688-0.688S14.262,21.146,13.892,21.146z"/>
	</g>
</g>
<g>
	<g>
		<path fill="#4B92E2" d="M16.484,26.49c-0.238-0.265-0.688-0.265-0.952,0l-1.455,1.455c-0.265,0.265-0.265,0.688,0,0.953
			c0.264,0.265,0.688,0.265,0.952,0l1.455-1.455C16.749,27.177,16.749,26.754,16.484,26.49z"/>
	</g>
</g>
<g>
	<g>
		<path fill="#4B92E2" d="M16.484,16.225l-1.455-1.455c-0.264-0.265-0.688-0.265-0.952,0c-0.265,0.265-0.265,0.688,0,0.952
			l1.455,1.455c0.264,0.265,0.688,0.265,0.952,0C16.749,16.913,16.749,16.49,16.484,16.225z"/>
	</g>
</g>
</svg>
