<?xml version="1.0" encoding="utf-8"?>
<!-- Generator: Adobe Illustrator 16.2.0, SVG Export Plug-In . SVG Version: 6.00 Build 0)  -->
<!DOCTYPE svg PUBLIC "-//W3C//DTD SVG 1.1//EN" "http://www.w3.org/Graphics/SVG/1.1/DTD/svg11.dtd">
<svg version="1.1" id="Capa_1" xmlns="http://www.w3.org/2000/svg" xmlns:xlink="http://www.w3.org/1999/xlink" x="0px" y="0px"
	 width="35.5px" height="36.5px" viewBox="0 0 35.5 36.5" enable-background="new 0 0 35.5 36.5" xml:space="preserve">
<g>
	<path fill="#699EDA" d="M20.122,19.4H8.679c-0.981,0-1.779,0.798-1.779,1.779v6.342c0,0.98,0.798,1.779,1.779,1.779H10.5v3
		c0,0.123,0.076,0.234,0.191,0.279c0.036,0.014,0.072,0.021,0.108,0.021c0.083,0,0.164-0.034,0.222-0.099l2.911-3.201h6.188
		c0.981,0,1.779-0.799,1.779-1.779v-6.342C21.9,20.198,21.103,19.4,20.122,19.4z M10.5,25.7c-0.662,0-1.2-0.538-1.2-1.2
		c0-0.662,0.538-1.2,1.2-1.2c0.662,0,1.2,0.538,1.2,1.2C11.7,25.162,11.162,25.7,10.5,25.7z M14.4,25.7c-0.662,0-1.2-0.538-1.2-1.2
		c0-0.662,0.539-1.2,1.2-1.2s1.2,0.538,1.2,1.2C15.601,25.162,15.062,25.7,14.4,25.7z M18.301,25.7c-0.662,0-1.2-0.538-1.2-1.2
		c0-0.662,0.538-1.2,1.2-1.2c0.661,0,1.199,0.538,1.199,1.2C19.5,25.162,18.962,25.7,18.301,25.7z"/>
	<path fill="#699EDA" d="M23.121,15.2H11.679c-0.981,0-1.779,0.798-1.779,1.779V18.8h10.222c1.312,0,2.378,1.067,2.378,2.379v3.921
		h0.621c0.981,0,1.779-0.798,1.779-1.779v-6.342C24.9,15.999,24.103,15.2,23.121,15.2z"/>
</g>
</svg>
