<?xml version="1.0" encoding="utf-8"?>
<!-- Generator: Adobe Illustrator 16.2.0, SVG Export Plug-In . SVG Version: 6.00 Build 0)  -->
<!DOCTYPE svg PUBLIC "-//W3C//DTD SVG 1.1//EN" "http://www.w3.org/Graphics/SVG/1.1/DTD/svg11.dtd">
<svg version="1.1" id="Capa_1" xmlns="http://www.w3.org/2000/svg" xmlns:xlink="http://www.w3.org/1999/xlink" x="0px" y="0px"
	 width="38.5px" height="41.5px" viewBox="0 0 38.5 41.5" enable-background="new 0 0 38.5 41.5" xml:space="preserve">
<g>
	<path fill="#699EDA" d="M8.101,18.702H6.3v12.601c0,0.988,0.81,1.799,1.8,1.799h12.6v-1.799h-12.6V18.702z M22.501,15.101h-10.8
		c-0.99,0-1.799,0.81-1.799,1.799v10.802c0,0.988,0.81,1.799,1.798,1.799h10.8c0.99,0,1.801-0.811,1.801-1.799V16.899
		C24.301,15.911,23.491,15.101,22.501,15.101z M21.601,23.202h-3.6v3.601h-1.8v-3.601h-3.601v-1.802h3.6v-3.597H18V21.4h3.601
		V23.202L21.601,23.202z"/>
</g>
</svg>
