<?xml version="1.0" encoding="utf-8"?>
<!-- Generator: Adobe Illustrator 16.2.0, SVG Export Plug-In . SVG Version: 6.00 Build 0)  -->
<!DOCTYPE svg PUBLIC "-//W3C//DTD SVG 1.1//EN" "http://www.w3.org/Graphics/SVG/1.1/DTD/svg11.dtd">
<svg version="1.1" id="Capa_1" xmlns="http://www.w3.org/2000/svg" xmlns:xlink="http://www.w3.org/1999/xlink" x="0px" y="0px"
	 width="33.5px" height="38.5px" viewBox="0 0 33.5 38.5" enable-background="new 0 0 33.5 38.5" xml:space="preserve">
<g>
	<path fill="#699EDA" d="M20.188,15.384H9.376c-0.877,0-1.594,0.717-1.594,1.594v13.145c0,0.877,0.717,1.594,1.594,1.594h10.812
		c0.877,0,1.594-0.717,1.594-1.594V16.978C21.782,16.101,21.065,15.384,20.188,15.384z M17.455,28.44l-2.672-1.406l-2.671,1.406
		l0.51-2.975l-2.162-2.107l2.987-0.436l1.336-2.706l1.335,2.706l2.988,0.436l-2.161,2.107L17.455,28.44z M20.616,18.981H8.949
		v-2.003c0-0.232,0.195-0.427,0.427-0.427h10.811c0.231,0,0.428,0.195,0.428,0.427L20.616,18.981L20.616,18.981z"/>
</g>
</svg>
