<?xml version="1.0" encoding="utf-8"?>
<!-- Generator: Adobe Illustrator 16.2.0, SVG Export Plug-In . SVG Version: 6.00 Build 0)  -->
<!DOCTYPE svg PUBLIC "-//W3C//DTD SVG 1.1//EN" "http://www.w3.org/Graphics/SVG/1.1/DTD/svg11.dtd">
<svg version="1.1" id="Capa_1" xmlns="http://www.w3.org/2000/svg" xmlns:xlink="http://www.w3.org/1999/xlink" x="0px" y="0px"
	 width="37.5px" height="42.5px" viewBox="0 0 37.5 42.5" enable-background="new 0 0 37.5 42.5" xml:space="preserve">
<g>
	<g id="timelapse">
		<path fill="#699EDA" d="M21.78,20.22C20.79,19.14,19.35,18.6,18,18.6V24l-3.78,3.78c2.07,2.069,5.49,2.069,7.65,0
			C23.94,25.71,23.94,22.29,21.78,20.22z M18,15c-4.95,0-9,4.05-9,9s4.05,9,9,9s9-4.05,9-9S22.95,15,18,15z M18,31.2
			c-3.96,0-7.2-3.24-7.2-7.2s3.24-7.2,7.2-7.2s7.2,3.24,7.2,7.2S21.96,31.2,18,31.2z"/>
	</g>
</g>
</svg>
