<?xml version="1.0" encoding="utf-8"?>
<!-- Generator: Adobe Illustrator 16.2.0, SVG Export Plug-In . SVG Version: 6.00 Build 0)  -->
<!DOCTYPE svg PUBLIC "-//W3C//DTD SVG 1.1//EN" "http://www.w3.org/Graphics/SVG/1.1/DTD/svg11.dtd">
<svg version="1.1" id="Capa_1" xmlns="http://www.w3.org/2000/svg" xmlns:xlink="http://www.w3.org/1999/xlink" x="0px" y="0px"
	 width="31.5px" height="30.57px" viewBox="0 0 31.5 30.57" enable-background="new 0 0 31.5 30.57" xml:space="preserve">
<g>
	<g id="Layer_2_4_">
		<g>
			<path d="M8.64,16.312c0.149,0.104,1.966,0.17,4.279,0.201c0.814,0.541,1.892,0.872,3.076,0.881l0,0c0.003,0,0.004,0,0.006,0
				s0.004,0,0.005,0l0,0c1.184-0.009,2.264-0.34,3.078-0.881c2.313-0.031,4.129-0.098,4.277-0.201
				c0.677-0.474-1.666-1.203-1.666-7.321c0-3.093-2.506-5.601-5.6-5.601c-0.026,0-0.16,0-0.188,0c-3.093,0-5.6,2.506-5.6,5.601
				C10.307,15.109,7.963,15.838,8.64,16.312z"/>
			<path d="M21.966,19.441c-0.829-0.298-2.272-1.159-2.521-1.293c-0.064-0.037-0.139-0.059-0.219-0.059
				c-0.172,0-0.322,0.102-0.393,0.249c-0.682,1.144-1.95,4.472-2.835,4.533c-0.885-0.063-2.153-3.391-2.835-4.533
				c-0.07-0.147-0.22-0.249-0.393-0.249c-0.079,0-0.153,0.021-0.219,0.059c-0.246,0.134-1.689,0.995-2.52,1.293
				C7.251,20.446,6,21.468,6,22.166c0,0.695,0,4.571,0,4.571h10h10c0,0,0-3.873,0-4.571S24.749,20.446,21.966,19.441z"/>
		</g>
	</g>
</g>
</svg>
