<?xml version="1.0" encoding="utf-8"?>
<!-- Generator: Adobe Illustrator 16.2.0, SVG Export Plug-In . SVG Version: 6.00 Build 0)  -->
<!DOCTYPE svg PUBLIC "-//W3C//DTD SVG 1.1//EN" "http://www.w3.org/Graphics/SVG/1.1/DTD/svg11.dtd">
<svg version="1.1" id="Capa_1" xmlns="http://www.w3.org/2000/svg" xmlns:xlink="http://www.w3.org/1999/xlink" x="0px" y="0px"
	 width="31.5px" height="31px" viewBox="224.896 225.146 31.5 31" enable-background="new 224.896 225.146 31.5 31"
	 xml:space="preserve">
<g>
	<g id="Layer_2_16_">
		<g>
			<path d="M235.329,234.66c0.168,2.204,1.044,1.253,1.225,2.22c0.301,1.605,1.722,2.768,2.607,3.168
				c0.516,0.233,1.048,0.352,1.606,0.36l0,0c0.002,0,0.004,0,0.006,0s0.003,0,0.006,0l0,0c0.558-0.009,1.091-0.127,1.605-0.36
				c0.885-0.4,2.307-1.563,2.607-3.168c0.182-0.966,1.057-0.016,1.225-2.22c0-0.878-0.478-1.097-0.478-1.097s0.243-1.3,0.338-2.3
				c0.117-1.248-0.729-4.467-5.239-4.467c-0.02,0-0.038,0.001-0.058,0.001h-0.001l0,0c-0.003,0-0.004,0-0.006,0s-0.004,0-0.006,0
				l0,0c0,0-0.001,0-0.001,0c-0.02,0-0.038-0.001-0.058-0.001c-4.511,0-5.357,3.22-5.239,4.467c0.095,1,0.338,2.3,0.338,2.3
				S235.329,233.782,235.329,234.66z"/>
			<path d="M251.008,245.479c-2.275-1.158-5.574-2.604-5.732-2.654c-0.002-0.001-0.003-0.001-0.006-0.001
				c-0.093-0.033-0.192-0.052-0.296-0.052c-0.386,0-0.714,0.248-0.835,0.594c-0.001,0-0.001-0.001-0.003-0.001
				c-0.588,1.414-1.666,3.938-2.336,5.153l-0.162-3.41c0,0,1.006-2.135,1.118-2.329c0.259-0.46,0.024-0.851-0.461-0.851
				c-0.241,0-0.846,0-1.449,0h-0.001c-0.004,0-0.008,0-0.013,0c0,0-0.001,0-0.002,0c-0.007,0-0.017,0-0.025,0
				c-0.007,0-0.017,0-0.025,0c0,0-0.001,0-0.002,0c-0.003,0-0.007,0-0.012,0h-0.001c-0.604,0-1.208,0-1.449,0
				c-0.486,0-0.72,0.391-0.46,0.851c0.11,0.194,1.115,2.329,1.115,2.329l-0.161,3.41c-0.669-1.216-1.748-3.739-2.335-5.153
				c-0.001,0-0.002,0.001-0.003,0.001c-0.121-0.345-0.45-0.594-0.835-0.594c-0.104,0-0.204,0.019-0.296,0.052
				c-0.001,0-0.003,0-0.005,0.001c-0.158,0.051-3.456,1.496-5.732,2.654c-1.021,0.52-1.639,1.167-1.639,1.847
				c0,2.25,0,5.356,0,5.356h11.791h0.01h0.006l0,0h0.006h0.009h0.017h0.018h0.01h0.005l0,0h0.006h0.009h11.792c0,0,0-3.106,0-5.356
				C252.646,246.646,252.029,245.998,251.008,245.479z"/>
		</g>
	</g>
</g>
</svg>
