<?xml version="1.0" encoding="utf-8"?>
<!-- Generator: Adobe Illustrator 16.2.0, SVG Export Plug-In . SVG Version: 6.00 Build 0)  -->
<!DOCTYPE svg PUBLIC "-//W3C//DTD SVG 1.1//EN" "http://www.w3.org/Graphics/SVG/1.1/DTD/svg11.dtd">
<svg version="1.1" id="Слой_1" xmlns="http://www.w3.org/2000/svg" xmlns:xlink="http://www.w3.org/1999/xlink" x="0px" y="0px"
	 width="512px" height="512px" viewBox="0 0 512 512" enable-background="new 0 0 512 512" xml:space="preserve">
<path fill="#FFFFFF" d="M119.904,266.346c-2.27-2.269-3.404-5.674-3.404-7.942s1.134-5.673,3.404-7.942l15.884-15.884
	c4.539-4.539,11.346-4.539,15.885,0l1.134,1.134l62.404,66.943c2.269,2.269,5.673,2.269,7.942,0l152.039-157.711h1.135l0,0
	c4.537-4.539,11.346-4.539,15.884,0l15.884,15.884c4.54,4.539,4.54,11.346,0,15.885l0,0L226.558,365.058
	c-2.27,2.269-4.539,3.403-7.943,3.403c-3.403,0-5.672-1.135-7.942-3.403l-88.5-95.308L119.904,266.346L119.904,266.346z"/>
</svg>
