<?xml version="1.0" encoding="utf-8"?>
<!-- Generator: Adobe Illustrator 16.2.0, SVG Export Plug-In . SVG Version: 6.00 Build 0)  -->
<!DOCTYPE svg PUBLIC "-//W3C//DTD SVG 1.1//EN" "http://www.w3.org/Graphics/SVG/1.1/DTD/svg11.dtd">
<svg version="1.1" id="Capa_1" xmlns="http://www.w3.org/2000/svg" xmlns:xlink="http://www.w3.org/1999/xlink" x="0px" y="0px"
	 width="38.5px" height="35.5px" viewBox="0 0 38.5 35.5" enable-background="new 0 0 38.5 35.5" xml:space="preserve">
  <style type="text/css">
    <![CDATA[
		.check_line{
			animation: 1s line forwards;
			stroke-dashoffset: -60; 
			stroke-dasharray: 60;
		}
		@keyframes line{
			100%{
			  
			  stroke-dashoffset: 120; 
			}
		}
    ]]>
  </style>
<g>
	<path fill="#43B27A" d="M11.245,25.002c1.007,1.007,2.181,1.798,3.489,2.353c1.355,0.573,2.793,0.863,4.275,0.863
		c1.481,0,2.919-0.29,4.275-0.863c1.307-0.554,2.481-1.345,3.49-2.353c1.007-1.009,1.798-2.183,2.353-3.49
		c0.573-1.356,0.863-2.794,0.863-4.275c0-1.482-0.29-2.92-0.863-4.275c-0.554-1.308-1.345-2.482-2.353-3.491
		c-1.009-1.007-2.183-1.799-3.49-2.352c-1.356-0.574-2.794-0.865-4.275-0.865c-1.482,0-2.92,0.291-4.275,0.865
		c-1.308,0.552-2.482,1.344-3.489,2.352c-1.009,1.009-1.801,2.183-2.354,3.491c-0.573,1.355-0.864,2.793-0.864,4.275
		c0,1.481,0.291,2.919,0.864,4.275C9.444,22.819,10.236,23.993,11.245,25.002z M19.009,7.858c5.179,0,9.378,4.198,9.378,9.378
		c0,5.179-4.199,9.378-9.378,9.378c-5.18,0-9.378-4.199-9.378-9.378C9.631,12.057,13.829,7.858,19.009,7.858z"/>
	<path fill="#43B27A" d="M19.009,28.236c-1.485,0-2.925-0.291-4.282-0.865c-1.311-0.555-2.487-1.347-3.496-2.356
		c-1.01-1.01-1.803-2.187-2.357-3.496c-0.574-1.357-0.865-2.798-0.865-4.283s0.291-2.925,0.865-4.282
		c0.554-1.311,1.347-2.486,2.357-3.496c1.009-1.01,2.186-1.803,3.496-2.357c1.357-0.574,2.797-0.865,4.282-0.865
		s2.925,0.291,4.283,0.865c1.309,0.554,2.486,1.347,3.496,2.357s1.803,2.186,2.356,3.496c0.574,1.357,0.865,2.797,0.865,4.282
		s-0.291,2.925-0.865,4.283c-0.554,1.309-1.347,2.486-2.356,3.496s-2.187,1.802-3.496,2.356
		C21.934,27.945,20.494,28.236,19.009,28.236z M19.009,6.274c-1.479,0-2.915,0.29-4.268,0.862c-1.306,0.553-2.478,1.343-3.484,2.349
		c-1.006,1.006-1.796,2.178-2.349,3.484c-0.572,1.353-0.862,2.788-0.862,4.268c0,1.479,0.29,2.915,0.862,4.268
		c0.553,1.305,1.343,2.477,2.349,3.484c1.006,1.006,2.178,1.796,3.484,2.348c1.352,0.573,2.788,0.863,4.268,0.863
		c1.479,0,2.915-0.29,4.267-0.863c1.306-0.551,2.478-1.342,3.485-2.348c1.006-1.007,1.796-2.18,2.348-3.484
		c0.573-1.354,0.863-2.789,0.863-4.268c0-1.479-0.29-2.915-0.863-4.268c-0.551-1.305-1.342-2.478-2.348-3.484
		c-1.007-1.006-2.18-1.796-3.485-2.349C21.923,6.564,20.488,6.274,19.009,6.274z M19.009,26.633c-2.51,0-4.87-0.978-6.645-2.752
		s-2.752-4.134-2.752-6.645s0.978-4.87,2.752-6.645s4.134-2.752,6.645-2.752s4.87,0.978,6.645,2.752s2.752,4.134,2.752,6.645
		s-0.978,4.87-2.752,6.645S21.519,26.633,19.009,26.633z M19.009,7.877c-2.5,0-4.85,0.973-6.618,2.741s-2.741,4.118-2.741,6.618
		c0,2.5,0.973,4.851,2.741,6.618c1.768,1.768,4.118,2.742,6.618,2.742c2.5,0,4.851-0.974,6.618-2.742
		c1.768-1.768,2.742-4.118,2.742-6.618c0-2.5-0.974-4.85-2.742-6.618C23.859,8.85,21.509,7.877,19.009,7.877z"/>
</g>
<path class="check_line" fill="none" stroke="#43B27A" stroke-width="2" stroke-miterlimit="10" d="M24.385,14.25l-6.246,6.5l-3.39-3.25"/>
</svg>
