<?xml version="1.0" encoding="utf-8"?>
<!-- Generator: Adobe Illustrator 16.2.0, SVG Export Plug-In . SVG Version: 6.00 Build 0)  -->
<!DOCTYPE svg PUBLIC "-//W3C//DTD SVG 1.1//EN" "http://www.w3.org/Graphics/SVG/1.1/DTD/svg11.dtd">
<svg version="1.1" id="Capa_1" xmlns="http://www.w3.org/2000/svg" xmlns:xlink="http://www.w3.org/1999/xlink" x="0px" y="0px"
	 width="175.5px" height="149.5px" viewBox="0 0 175.5 149.5" enable-background="new 0 0 175.5 149.5" xml:space="preserve">
<g>
	<g>
		<g>
			<path fill="#4B92E2" d="M107.425,48.732v-0.118c-0.119-0.117-0.119-0.234-0.236-0.352L95.442,36.513
				c-0.12-0.117-0.234-0.117-0.354-0.234h-0.12c-0.117,0-0.233-0.117-0.35-0.117l0,0H57.026c-0.707,0-1.176,0.469-1.176,1.176
				v68.141c0,0.702,0.469,1.172,1.176,1.172h49.339c0.707,0,1.179-0.47,1.179-1.172V49.083l0,0
				C107.544,48.966,107.544,48.849,107.425,48.732z M103.547,47.911h-7.756v-7.755L103.547,47.911z M82.87,104.299v-4.697h2.352
				c0.703,0,1.172-0.47,1.172-1.172v-4.705h1.176c0.706,0,1.177-0.468,1.177-1.172v-8.694c5.756-2.703,9.397-8.458,9.397-14.801
				c0-9.048-7.4-16.451-16.446-16.451c-9.048,0-16.45,7.403-16.45,16.451c0,6.343,3.644,12.098,9.401,14.801v8.694
				c0,0.704,0.468,1.172,1.172,1.172h1.176v4.705c0,0.702,0.469,1.172,1.176,1.172h2.348v4.697H58.198v-65.79h35.248v10.574
				c0,0.707,0.469,1.176,1.173,1.176h10.573v54.04H82.87z M76.997,86.676c0-1.762,0-3.525,0-3.525c0-0.468-0.235-0.821-0.706-1.055
				c-5.287-2.23-8.692-7.4-8.692-13.039c0-7.756,6.342-14.098,14.098-14.098c7.752,0,14.094,6.342,14.094,14.098
				c0,5.639-3.404,10.809-8.69,13.039c-0.47,0.117-0.707,0.587-0.707,1.055v8.229h-1.172h-7.049h-1.176c0,0,0-1.414,0-2.352h5.873
				v-2.352H76.997z M79.345,93.725h4.701v3.525h-4.701V93.725z"/>
			<path fill="#4B92E2" d="M82.87,67.176l3.173-3.172l-1.645-1.645l-2.701,2.702l-2.703-2.702l-1.645,1.645l3.172,3.172v12.451
				h2.349C82.87,79.627,82.87,68.117,82.87,67.176z"/>
			<path fill="#4B92E2" d="M125.167,36.161h-7.049c-0.707,0-1.18,0.469-1.18,1.176v4.697h-3.525c-0.702,0-1.172,0.47-1.172,1.176
				v35.245h2.352V44.386h2.345v5.873v44.646c0,0.234,0.12,0.583,0.239,0.702l3.405,10.22c0.119,0.473,0.587,0.824,1.06,0.824
				c0.468,0,0.938-0.351,1.055-0.824l3.407-10.22c0.117-0.234,0.234-0.467,0.234-0.702V50.259V37.337
				C126.339,36.63,125.869,36.161,125.167,36.161z M119.29,51.435h4.697v42.29h-4.697V51.435z M119.29,38.509h4.697v10.574h-4.697
				V38.509z M121.642,101.715l-1.882-5.638h3.758L121.642,101.715z"/>
			<rect x="62.898" y="42.034" fill="#4B92E2" width="5.873" height="2.352"/>
			<rect x="62.898" y="46.735" fill="#4B92E2" width="15.274" height="2.348"/>
		</g>
	</g>
</g>
</svg>
