<?xml version="1.0" encoding="iso-8859-1"?>
<!-- Generator: Adobe Illustrator 19.0.0, SVG Export Plug-In . SVG Version: 6.00 Build 0)  -->
<svg version="1.1" id="Capa_1" xmlns="http://www.w3.org/2000/svg" xmlns:xlink="http://www.w3.org/1999/xlink" x="0px" y="0px"
	 viewBox="0 0 507.312 507.312" style="enable-background:new 0 0 507.312 507.312;" xml:space="preserve">
<g>
	<g>
		<g>
			<polygon points="59.312,89.376 22.624,52.688 0,75.312 59.312,134.624 166.624,27.312 144,4.688 			"/>
			<polygon points="59.312,265.376 22.624,228.688 0,251.312 59.312,310.624 166.624,203.312 144,180.688 			"/>
			<polygon points="59.312,457.376 22.624,420.688 0,443.312 59.312,502.624 166.624,395.312 144,372.688 			"/>
			<rect x="411.312" y="416" width="32" height="32"/>
			<rect x="475.312" y="416" width="32" height="32"/>
			<rect x="219.312" y="416" width="160" height="32"/>
			<rect x="411.312" y="224" width="32" height="32"/>
			<rect x="475.312" y="224" width="32" height="32"/>
			<rect x="219.312" y="224" width="160" height="32"/>
			<rect x="475.312" y="64" width="32" height="32"/>
			<rect x="411.312" y="64" width="32" height="32"/>
			<rect x="219.312" y="64" width="160" height="32"/>
		</g>
	</g>
</g>
<g>
</g>
<g>
</g>
<g>
</g>
<g>
</g>
<g>
</g>
<g>
</g>
<g>
</g>
<g>
</g>
<g>
</g>
<g>
</g>
<g>
</g>
<g>
</g>
<g>
</g>
<g>
</g>
<g>
</g>
</svg>
