<?xml version="1.0" encoding="utf-8"?>
<!-- Generator: Adobe Illustrator 16.2.0, SVG Export Plug-In . SVG Version: 6.00 Build 0)  -->
<!DOCTYPE svg PUBLIC "-//W3C//DTD SVG 1.1//EN" "http://www.w3.org/Graphics/SVG/1.1/DTD/svg11.dtd">
<svg version="1.1" id="Capa_1" xmlns="http://www.w3.org/2000/svg" xmlns:xlink="http://www.w3.org/1999/xlink" x="0px" y="0px"
	 width="175.5px" height="149.5px" viewBox="46.5 69.5 175.5 149.5" enable-background="new 46.5 69.5 175.5 149.5"
	 xml:space="preserve">
<g>
	<path class="figure" fill="#4B92E2" d="M157.762,102.828h-16.876H124.01v31.238v31.238h24.47h24.471v-23.644v-23.645l-7.595-7.594L157.762,102.828
		z M158.372,106.383l11.022,11.023h-11.022V106.383z M126.092,163.223v-58.312h30.197v14.578h14.578v43.734H126.092z"/>
	<path class="figure" fill="#4B92E2" d="M134.422,120.53h9.372c0.574,0,1.041-0.465,1.041-1.041s-0.467-1.042-1.041-1.042h-9.372
		c-0.575,0-1.042,0.465-1.042,1.041S133.848,120.53,134.422,120.53z"/>
	<path class="figure" fill="#4B92E2" d="M152.124,141.355h-17.702c-0.575,0-1.042,0.465-1.042,1.041c0,0.576,0.467,1.042,1.042,1.042h17.702
		c0.575,0,1.041-0.465,1.041-1.042C153.165,141.821,152.699,141.355,152.124,141.355z"/>
	<path class="figure" fill="#4B92E2" d="M162.537,134.066h-7.289c-0.575,0-1.041,0.466-1.041,1.042s0.466,1.041,1.041,1.041h7.289
		c0.574,0,1.041-0.465,1.041-1.041S163.111,134.066,162.537,134.066z"/>
	<path class="figure" fill="#4B92E2" d="M134.422,128.86h5.207c0.574,0,1.041-0.465,1.041-1.041s-0.467-1.041-1.041-1.041h-5.207
		c-0.575,0-1.042,0.465-1.042,1.041S133.848,128.86,134.422,128.86z"/>
	<path class="figure" fill="#4B92E2" d="M150.042,128.86h7.289c0.574,0,1.041-0.465,1.041-1.041s-0.467-1.041-1.041-1.041h-7.289
		c-0.575,0-1.042,0.465-1.042,1.041S149.467,128.86,150.042,128.86z"/>
	<path class="figure" fill="#4B92E2" d="M143.794,127.819c0,0.271,0.114,0.542,0.302,0.739c0.198,0.188,0.469,0.302,0.739,0.302
		s0.542-0.115,0.739-0.302c0.188-0.198,0.302-0.468,0.302-0.739c0-0.272-0.114-0.542-0.302-0.74c-0.385-0.385-1.083-0.385-1.479,0
		C143.908,127.276,143.794,127.547,143.794,127.819z"/>
	<path class="figure" fill="#4B92E2" d="M134.422,136.149c0.271,0,0.542-0.114,0.74-0.302c0.187-0.198,0.302-0.469,0.302-0.739
		c0-0.272-0.115-0.542-0.302-0.739c-0.386-0.385-1.094-0.385-1.479,0c-0.187,0.197-0.302,0.457-0.302,0.739
		c0,0.271,0.115,0.541,0.302,0.739C133.881,136.035,134.151,136.149,134.422,136.149z"/>
	<path class="figure" fill="#4B92E2" d="M162.537,148.645h-7.289c-0.575,0-1.041,0.465-1.041,1.041s0.466,1.042,1.041,1.042h7.289
		c0.574,0,1.041-0.466,1.041-1.042S163.111,148.645,162.537,148.645z"/>
	<path class="figure" fill="#4B92E2" d="M133.683,148.946c-0.187,0.188-0.302,0.458-0.302,0.739s0.104,0.541,0.302,0.739
		c0.198,0.188,0.469,0.303,0.74,0.303c0.281,0,0.542-0.115,0.74-0.303c0.187-0.198,0.302-0.468,0.302-0.739
		c0-0.281-0.115-0.542-0.302-0.729C134.776,148.562,134.079,148.562,133.683,148.946z"/>
	<path class="figure" fill="#4B92E2" d="M161.798,127.079c-0.188,0.197-0.303,0.468-0.303,0.74c0,0.271,0.115,0.542,0.303,0.739
		c0.198,0.188,0.468,0.302,0.739,0.302c0.271,0,0.541-0.115,0.739-0.302c0.198-0.198,0.302-0.468,0.302-0.739
		c0-0.272-0.104-0.542-0.302-0.74C162.881,126.694,162.193,126.694,161.798,127.079z"/>
	<path class="figure" fill="#4B92E2" d="M158.07,143.136c0.187-0.198,0.302-0.469,0.302-0.74c0-0.271-0.115-0.542-0.302-0.739
		c-0.396-0.385-1.094-0.385-1.479,0c-0.188,0.197-0.303,0.468-0.303,0.739c0,0.271,0.115,0.542,0.303,0.74
		c0.197,0.197,0.458,0.302,0.739,0.302C157.611,143.438,157.872,143.323,158.07,143.136z"/>
	<path class="figure" fill="#4B92E2" d="M161.798,141.657c-0.188,0.197-0.303,0.468-0.303,0.739c0,0.271,0.115,0.542,0.303,0.74
		c0.198,0.187,0.458,0.302,0.739,0.302s0.541-0.115,0.739-0.302c0.188-0.198,0.302-0.469,0.302-0.74
		c0-0.271-0.114-0.542-0.302-0.739C162.891,141.272,162.184,141.272,161.798,141.657z"/>
</g>
<circle fill="#D2E9FF" cx="123.02" cy="159.214" r="26.24"/>
<circle fill="#FFFFFF" cx="125.207" cy="160.463" r="22.804"/>
<g>
	<path class="figure" fill="#4B92E2" d="M125.811,156.51l-13.479-9.75c-0.412-0.297-0.984-0.253-1.346,0.108c-0.362,0.362-0.407,0.934-0.108,1.347
		l9.751,13.48c0.64,0.88,1.628,1.433,2.712,1.517c0.098,0.008,0.195,0.011,0.291,0.011c0.981,0,1.924-0.388,2.623-1.087
		c0.768-0.768,1.16-1.829,1.075-2.913S126.693,157.15,125.811,156.51z M124.782,160.663c-0.337,0.336-0.807,0.509-1.279,0.472
		c-0.475-0.036-0.909-0.279-1.188-0.663l-5.949-8.224l8.221,5.947c0.386,0.281,0.628,0.715,0.667,1.19
		C125.292,159.86,125.119,160.326,124.782,160.663z"/>
	<path class="figure" fill="#4B92E2" d="M150.334,151.791c-0.001-0.003,0-0.007-0.001-0.011s-0.004-0.007-0.005-0.011
		c-0.638-2.374-1.581-4.621-2.78-6.703c-0.01-0.021-0.01-0.045-0.023-0.066c-0.012-0.021-0.032-0.033-0.045-0.053
		c-1.053-1.807-2.298-3.485-3.714-5.007l2.235-2.236l1.474,1.472l4.418-4.417l-4.418-4.418l-4.418,4.419l1.473,1.473l-2.235,2.235
		c-1.522-1.414-3.201-2.66-5.008-3.713c-0.021-0.014-0.031-0.033-0.052-0.046c-0.021-0.012-0.046-0.011-0.066-0.023
		c-2.083-1.2-4.33-2.143-6.702-2.78c-0.004-0.001-0.007-0.004-0.012-0.005c-0.004-0.001-0.007,0-0.01,0
		c-1.346-0.361-2.729-0.623-4.144-0.78v-1.219h1.562c1.437,0,2.604-1.167,2.604-2.603s-1.167-2.604-2.604-2.604h-9.372
		c-1.436,0-2.603,1.167-2.603,2.603c0,1.436,1.167,2.604,2.603,2.604h1.562v1.219c-1.415,0.158-2.798,0.42-4.142,0.78
		c-0.005,0.001-0.007,0-0.011,0.001c-0.004,0.001-0.007,0.004-0.012,0.005c-2.372,0.637-4.619,1.581-6.702,2.78
		c-0.022,0.011-0.045,0.011-0.067,0.023c-0.021,0.013-0.033,0.032-0.052,0.046c-1.806,1.053-3.485,2.298-5.007,3.713l-2.236-2.236
		l1.472-1.473l-4.418-4.418l-4.417,4.418l4.417,4.417l1.474-1.472l2.235,2.235c-1.414,1.523-2.66,3.201-3.712,5.008
		c-0.013,0.02-0.034,0.031-0.045,0.052c-0.013,0.021-0.012,0.045-0.023,0.066c-1.201,2.083-2.143,4.33-2.78,6.703
		c-0.001,0.004-0.004,0.007-0.005,0.012c-0.001,0.003,0,0.007-0.001,0.011c-0.622,2.319-0.958,4.753-0.958,7.266
		s0.337,4.946,0.957,7.266c0.001,0.005,0,0.008,0.001,0.011c0.001,0.005,0.005,0.009,0.006,0.015
		c0.637,2.372,1.58,4.618,2.779,6.699c0.01,0.021,0.01,0.045,0.023,0.066c0.018,0.031,0.042,0.054,0.063,0.082
		c1.213,2.075,2.679,3.985,4.364,5.679c0.017,0.021,0.023,0.044,0.042,0.063c0.019,0.02,0.043,0.025,0.063,0.042
		c1.702,1.692,3.622,3.164,5.708,4.381c0.02,0.013,0.031,0.032,0.052,0.045c0.031,0.019,0.065,0.026,0.098,0.041
		c2.073,1.191,4.311,2.128,6.671,2.763c0.004,0.001,0.007,0.004,0.011,0.005c0.005,0.002,0.011,0.002,0.016,0.002
		c2.319,0.621,4.751,0.956,7.262,0.956s4.943-0.335,7.261-0.956c0.005-0.001,0.01,0,0.015-0.002
		c0.004-0.001,0.007-0.004,0.012-0.006c2.361-0.634,4.597-1.57,6.671-2.762c0.032-0.015,0.067-0.021,0.098-0.041
		c0.021-0.013,0.032-0.032,0.052-0.046c2.087-1.216,4.006-2.688,5.708-4.38c0.021-0.017,0.045-0.023,0.063-0.042
		s0.024-0.044,0.041-0.063c1.685-1.694,3.15-3.604,4.364-5.68c0.02-0.027,0.045-0.05,0.063-0.081
		c0.013-0.021,0.012-0.045,0.023-0.066c1.199-2.082,2.141-4.328,2.778-6.7c0.001-0.005,0.005-0.009,0.007-0.015
		c0.001-0.003,0-0.007,0.001-0.01c0.621-2.319,0.957-4.753,0.957-7.266S150.955,154.111,150.334,151.791z M147.475,133.287
		l1.473,1.473l-1.473,1.473l-1.474-1.473L147.475,133.287z M97.406,134.76l1.472-1.473l1.473,1.473l-1.473,1.473L97.406,134.76z
		 M146.04,166.262l1.994,0.534c-0.474,1.518-1.089,2.975-1.819,4.361l-1.777-1.026c-0.498-0.289-1.135-0.119-1.423,0.381
		c-0.287,0.499-0.116,1.135,0.382,1.423l1.773,1.022c-0.847,1.335-1.808,2.589-2.876,3.744l-1.447-1.445
		c-0.406-0.408-1.064-0.408-1.472,0c-0.407,0.406-0.407,1.065,0,1.472l1.446,1.447c-1.156,1.068-2.41,2.029-3.744,2.875
		l-1.023-1.772c-0.289-0.5-0.927-0.671-1.423-0.382c-0.499,0.287-0.669,0.925-0.381,1.423l1.026,1.777
		c-1.386,0.73-2.842,1.346-4.361,1.819l-0.534-1.994c-0.149-0.555-0.72-0.887-1.275-0.735c-0.555,0.148-0.885,0.72-0.736,1.275
		l0.532,1.987c-1.516,0.341-3.081,0.552-4.683,0.615v-2.057c0-0.576-0.465-1.041-1.042-1.041c-0.576,0-1.041,0.465-1.041,1.041
		v2.057c-1.603-0.063-3.168-0.274-4.684-0.616l0.532-1.986c0.149-0.555-0.181-1.127-0.736-1.275c-0.555-0.15-1.127,0.18-1.275,0.735
		l-0.534,1.994c-1.518-0.475-2.975-1.089-4.361-1.819l1.027-1.777c0.287-0.499,0.117-1.136-0.381-1.423
		c-0.498-0.288-1.135-0.118-1.422,0.382l-1.023,1.772c-1.335-0.846-2.589-1.807-3.745-2.875l1.446-1.447
		c0.407-0.406,0.407-1.065,0-1.472c-0.407-0.408-1.065-0.408-1.472,0l-1.446,1.445c-1.068-1.155-2.03-2.409-2.876-3.744l1.773-1.022
		c0.499-0.288,0.669-0.926,0.381-1.423c-0.289-0.5-0.927-0.671-1.422-0.381l-1.778,1.026c-0.73-1.387-1.345-2.842-1.819-4.361
		l1.994-0.534c0.555-0.149,0.885-0.72,0.736-1.275c-0.147-0.556-0.718-0.887-1.275-0.736l-1.988,0.532
		c-0.341-1.517-0.552-3.081-0.616-4.684h2.057c0.576,0,1.041-0.465,1.041-1.041s-0.465-1.042-1.041-1.042H97.17
		c0.063-1.602,0.273-3.167,0.615-4.684l1.988,0.533c0.091,0.024,0.181,0.035,0.271,0.035c0.459,0,0.879-0.306,1.004-0.771
		c0.15-0.555-0.181-1.127-0.736-1.275l-1.994-0.535c0.474-1.518,1.088-2.975,1.819-4.36l1.777,1.026
		c0.163,0.095,0.341,0.14,0.519,0.14c0.36,0,0.71-0.187,0.903-0.521c0.288-0.499,0.116-1.135-0.381-1.423l-1.773-1.023
		c0.847-1.335,1.808-2.589,2.876-3.745l1.446,1.446c0.203,0.203,0.469,0.305,0.736,0.305s0.533-0.102,0.736-0.305
		c0.407-0.407,0.407-1.065,0-1.472l-1.446-1.446c1.156-1.068,2.409-2.03,3.745-2.876l1.023,1.774
		c0.194,0.333,0.542,0.521,0.903,0.521c0.177,0,0.356-0.045,0.52-0.14c0.499-0.288,0.669-0.925,0.381-1.422l-1.027-1.778
		c1.386-0.731,2.842-1.346,4.361-1.819l0.534,1.994c0.124,0.464,0.544,0.771,1.005,0.771c0.089,0,0.18-0.011,0.271-0.035
		c0.555-0.149,0.885-0.72,0.736-1.275l-0.533-1.988c1.221-0.275,2.471-0.463,3.749-0.559c0.323-0.024,0.614-0.042,0.896-0.055
		c0.013,0,0.026,0,0.039-0.001v2.057c0,0.576,0.466,1.041,1.042,1.041s1.042-0.465,1.042-1.041v-2.057c0.013,0,0.025,0,0.039,0.001
		c0.282,0.013,0.573,0.031,0.896,0.055c1.278,0.097,2.529,0.284,3.749,0.559l-0.532,1.988c-0.149,0.555,0.181,1.126,0.736,1.275
		c0.091,0.024,0.181,0.035,0.271,0.035c0.459,0,0.881-0.307,1.005-0.771l0.534-1.994c1.518,0.474,2.975,1.088,4.36,1.819
		l-1.026,1.778c-0.288,0.499-0.117,1.135,0.381,1.422c0.164,0.095,0.342,0.14,0.52,0.14c0.359,0,0.71-0.188,0.902-0.521l1.023-1.774
		c1.335,0.847,2.589,1.809,3.744,2.876l-1.446,1.446c-0.407,0.407-0.407,1.065,0,1.472c0.203,0.203,0.47,0.306,0.736,0.306
		s0.533-0.103,0.736-0.306l1.446-1.446c1.068,1.156,2.029,2.41,2.876,3.745l-1.773,1.022c-0.499,0.288-0.67,0.924-0.382,1.423
		c0.194,0.335,0.543,0.521,0.903,0.521c0.177,0,0.356-0.045,0.52-0.141l1.777-1.026c0.731,1.386,1.346,2.842,1.819,4.361
		l-1.994,0.534c-0.556,0.149-0.886,0.72-0.736,1.276c0.125,0.465,0.545,0.771,1.005,0.771c0.09,0,0.181-0.012,0.271-0.035
		l1.988-0.533c0.342,1.516,0.552,3.081,0.615,4.684h-2.058c-0.576,0-1.041,0.465-1.041,1.041s0.465,1.042,1.041,1.042h2.057
		c-0.063,1.602-0.274,3.167-0.616,4.685l-1.987-0.532c-0.553-0.15-1.126,0.181-1.275,0.735
		C145.154,165.542,145.484,166.113,146.04,166.262z M122.135,130.965v-3.146h-3.645c-0.287,0-0.521-0.234-0.521-0.521
		c0-0.286,0.234-0.521,0.521-0.521h9.372c0.286,0,0.521,0.234,0.521,0.521c0,0.287-0.234,0.521-0.521,0.521h-3.645v3.146
		c-0.365-0.016-0.707-0.022-1.042-0.022C122.842,130.943,122.5,130.95,122.135,130.965z"/>
</g>
<path fill="#FFFFFF" d="M127.862,126.413h-9.372c-0.432,0-0.781,0.35-0.781,0.781c0,0.432,0.35,0.781,0.781,0.781h3.645v3.124h2.759
	v-3.124h2.968c0.431,0,0.781-0.35,0.781-0.781C128.643,126.763,128.293,126.413,127.862,126.413z"/>
</svg>
