<?xml version="1.0" encoding="utf-8"?>
<!-- Generator: Adobe Illustrator 16.2.0, SVG Export Plug-In . SVG Version: 6.00 Build 0)  -->
<!DOCTYPE svg PUBLIC "-//W3C//DTD SVG 1.1 Basic//EN" "http://www.w3.org/Graphics/SVG/1.1/DTD/svg11-basic.dtd">
<svg version="1.1" baseProfile="basic" id="Слой_1"
	 xmlns="http://www.w3.org/2000/svg" xmlns:xlink="http://www.w3.org/1999/xlink" x="0px" y="0px" width="70.5px" height="84.25px"
	 viewBox="0 0 70.5 84.25" xml:space="preserve">
<path fill="none" stroke="#EF4136" stroke-width="4" stroke-miterlimit="10" d="M28.75,19.25v-6.667L28.583,47.75l15.166-0.167
	c11.782,0,21.334-9.551,21.334-21.333S55.531,4.917,43.749,4.917h-6.415H5.583v70"/>
<polyline fill="none" stroke="#EF4136" stroke-width="4" stroke-miterlimit="10" points="11.5,73 64,73 52.584,55.083 
	28.625,55.104 28.646,62.25 47.432,62.25 54.5,72.932 13.417,72.917 13.417,10.25 "/>
<polyline fill="none" stroke="#EF4136" stroke-width="4" stroke-miterlimit="10" points="20.917,67.75 20.917,12.083 30.75,12.083 
	"/>
<circle fill="none" stroke="#EF4136" stroke-width="4" stroke-miterlimit="10" cx="45.063" cy="26.688" r="9.188"/>
<g>
	<path fill="#EF4136" d="M5.155,76.52c1.44,0,2.16,0.533,2.16,1.599c0,0.35-0.091,0.64-0.274,0.87
		c-0.182,0.229-0.411,0.414-0.686,0.555l1.567,2.333H6.49l-1.208-2.01H4.78v2.01H3.505V76.52H5.155z M5.103,77.525H4.78v1.343h0.323
		c0.305,0,0.534-0.058,0.686-0.169c0.153-0.112,0.229-0.291,0.229-0.536c0-0.215-0.073-0.375-0.218-0.479
		C5.655,77.578,5.422,77.525,5.103,77.525z"/>
	<path fill="#EF4136" d="M11.853,81.875H8.725V76.52h3.127v1.035H10v1.027h1.718v1.035H10v1.208h1.853V81.875z"/>
	<path fill="#EF4136" d="M16.412,80.322c0,0.305-0.075,0.582-0.225,0.828c-0.15,0.248-0.375,0.442-0.675,0.586
		c-0.3,0.143-0.678,0.214-1.132,0.214c-0.32,0-0.604-0.028-0.852-0.083c-0.247-0.055-0.489-0.139-0.724-0.248v-1.163
		c0.27,0.125,0.546,0.229,0.829,0.315c0.283,0.084,0.554,0.127,0.814,0.127c0.25,0,0.429-0.045,0.536-0.135
		c0.107-0.091,0.162-0.209,0.162-0.354c0-0.176-0.086-0.314-0.259-0.42c-0.173-0.105-0.421-0.233-0.747-0.383
		c-0.21-0.101-0.414-0.213-0.611-0.342c-0.197-0.127-0.358-0.291-0.483-0.494s-0.188-0.465-0.188-0.785
		c0-0.5,0.172-0.883,0.518-1.147c0.345-0.265,0.807-0.397,1.387-0.397c0.31,0,0.599,0.035,0.866,0.105
		c0.268,0.07,0.526,0.16,0.776,0.27l-0.404,1c-0.24-0.104-0.464-0.186-0.671-0.243s-0.409-0.087-0.604-0.087
		c-0.205,0-0.357,0.043-0.458,0.129c-0.101,0.085-0.15,0.191-0.15,0.322c0,0.104,0.035,0.195,0.105,0.273
		c0.07,0.078,0.18,0.156,0.33,0.236c0.15,0.08,0.348,0.178,0.593,0.293c0.265,0.119,0.492,0.25,0.682,0.39s0.335,0.306,0.435,0.495
		C16.362,79.814,16.412,80.047,16.412,80.322z"/>
	<path fill="#EF4136" d="M21.978,76.52v3.354c0,0.404-0.083,0.764-0.248,1.076c-0.165,0.312-0.417,0.558-0.754,0.734
		c-0.337,0.178-0.759,0.268-1.264,0.268c-0.72,0-1.27-0.186-1.65-0.555c-0.38-0.371-0.57-0.875-0.57-1.516v-3.359h1.283v3.217
		c0,0.414,0.081,0.709,0.244,0.881s0.404,0.259,0.724,0.259c0.335,0,0.579-0.091,0.731-0.274c0.152-0.182,0.229-0.474,0.229-0.873
		V76.52H21.978z"/>
	<path fill="#EF4136" d="M25.705,81.875l-1.2-4.042h-0.03c0.01,0.101,0.02,0.244,0.03,0.431c0.01,0.188,0.02,0.389,0.03,0.604
		c0.01,0.215,0.015,0.411,0.015,0.592v2.415h-1.14V76.52h1.725l1.192,3.961h0.03l1.23-3.961h1.717v5.355H28.12V79.43
		c0-0.17,0.004-0.359,0.011-0.565c0.008-0.208,0.015-0.405,0.022-0.593c0.008-0.188,0.014-0.332,0.019-0.432h-0.03l-1.237,4.035
		H25.705z"/>
	<path fill="#EF4136" d="M33.902,81.875h-3.127V76.52h3.127v1.035h-1.853v1.027h1.718v1.035h-1.718v1.208h1.853V81.875z"/>
	<path fill="#EF4136" d="M35.147,76.52h1.755c0.738,0,1.285,0.107,1.639,0.322s0.527,0.559,0.527,1.028
		c0,0.325-0.08,0.589-0.242,0.791c-0.163,0.203-0.359,0.325-0.59,0.372v0.037c0.16,0.039,0.313,0.103,0.462,0.188
		c0.147,0.085,0.267,0.213,0.356,0.383c0.088,0.17,0.135,0.396,0.135,0.676c0,0.49-0.18,0.873-0.537,1.146
		c-0.356,0.273-0.846,0.413-1.465,0.413h-2.042L35.147,76.52L35.147,76.52z M36.422,78.611h0.563c0.285,0,0.486-0.051,0.602-0.152
		c0.114-0.104,0.172-0.241,0.172-0.417c0-0.345-0.273-0.519-0.824-0.519h-0.511L36.422,78.611L36.422,78.611z M36.422,79.587v1.269
		h0.639c0.299,0,0.508-0.061,0.625-0.181c0.119-0.12,0.178-0.276,0.178-0.472c0-0.176-0.062-0.321-0.182-0.439
		c-0.119-0.117-0.336-0.176-0.652-0.176L36.422,79.587L36.422,79.587z"/>
	<path fill="#EF4136" d="M44.852,76.52v3.354c0,0.404-0.082,0.764-0.246,1.076c-0.166,0.312-0.416,0.558-0.754,0.734
		c-0.338,0.178-0.76,0.268-1.265,0.268c-0.72,0-1.271-0.186-1.649-0.555c-0.379-0.371-0.569-0.875-0.569-1.516v-3.359h1.282v3.217
		c0,0.414,0.08,0.709,0.244,0.881c0.162,0.172,0.402,0.259,0.724,0.259c0.335,0,0.577-0.091,0.731-0.274
		c0.151-0.182,0.229-0.474,0.229-0.873V76.52H44.852z"/>
	<path fill="#EF4136" d="M48.504,81.875H45.9v-0.729l0.66-0.276v-3.345l-0.66-0.277V76.52h2.604v0.729l-0.658,0.277v3.345
		l0.658,0.276V81.875z"/>
	<path fill="#EF4136" d="M49.592,81.875V76.52h1.275v4.313h2.122v1.042H49.592z"/>
	<path fill="#EF4136" d="M58.585,79.115c0,0.92-0.255,1.609-0.767,2.07c-0.51,0.459-1.211,0.689-2.106,0.689H54.1V76.52h1.764
		c0.845,0,1.51,0.222,1.994,0.664S58.585,78.27,58.585,79.115z M57.266,79.16c0-0.545-0.117-0.948-0.35-1.208
		c-0.232-0.261-0.57-0.39-1.018-0.39h-0.523v3.263h0.412c0.505,0,0.878-0.14,1.117-0.417C57.145,80.131,57.266,79.715,57.266,79.16z
		"/>
	<path fill="#EF4136" d="M62.965,81.875h-3.128V76.52h3.128v1.035h-1.854v1.027h1.718v1.035h-1.718v1.208h1.854V81.875z"/>
	<path fill="#EF4136" d="M65.859,76.52c1.438,0,2.16,0.533,2.16,1.599c0,0.35-0.093,0.64-0.274,0.87
		c-0.183,0.229-0.411,0.414-0.687,0.555l1.567,2.333h-1.433l-1.209-2.01h-0.502v2.01h-1.274V76.52H65.859z M65.807,77.525h-0.322
		v1.343h0.322c0.305,0,0.533-0.058,0.688-0.169c0.152-0.112,0.229-0.291,0.229-0.536c0-0.215-0.072-0.375-0.218-0.479
		C66.359,77.578,66.127,77.525,65.807,77.525z"/>
</g>
</svg>
