<?xml version="1.0" encoding="utf-8"?>
<!-- Generator: Adobe Illustrator 16.2.0, SVG Export Plug-In . SVG Version: 6.00 Build 0)  -->
<!DOCTYPE svg PUBLIC "-//W3C//DTD SVG 1.1//EN" "http://www.w3.org/Graphics/SVG/1.1/DTD/svg11.dtd">
<svg version="1.1" id="Слой_1" xmlns="http://www.w3.org/2000/svg" xmlns:xlink="http://www.w3.org/1999/xlink" x="0px" y="0px"
	 width="258px" height="84.25px" viewBox="0 0 258 84.25" enable-background="new 0 0 258 84.25" xml:space="preserve">
<polyline fill="none" stroke="#EF4136" stroke-width="4" stroke-miterlimit="10" points="43.749,4.917 5.583,4.917 5.583,74.917 "/>
<polyline fill="none" stroke="#EF4136" stroke-width="4" stroke-miterlimit="10" points="11.5,73 64,73 52.584,55.083 
	28.625,55.104 28.646,62.25 47.431,62.25 54.5,72.932 13.417,72.917 13.417,10.25 "/>
<path fill="none" stroke="#EF4136" stroke-width="4" stroke-miterlimit="10" d="M43.749,4.917c11.782,0,21.334,9.551,21.334,21.333
	s-9.552,21.333-21.334,21.333L28.583,47.75l0.167-35.167v6.667"/>
<polyline fill="none" stroke="#EF4136" stroke-width="4" stroke-miterlimit="10" points="20.917,67.75 20.917,12.083 30.75,12.083 
	"/>
<circle fill="none" stroke="#EF4136" stroke-width="4" stroke-miterlimit="10" cx="45.063" cy="26.688" r="9.188"/>
<g enable-background="new    ">
	<path fill="white" d="M99.254,59.542c1.927,0,3.351,0.355,4.273,1.066c0.922,0.71,1.383,1.79,1.383,3.237
		c0,0.712-0.133,1.319-0.399,1.825c-0.267,0.505-0.615,0.925-1.045,1.259c-0.431,0.336-0.885,0.605-1.363,0.81l4.202,6.437h-2.952
		l-3.504-5.779h-2.132v5.779h-2.624V59.542H99.254z M99.09,61.735h-1.373v4.508h1.455c1.093,0,1.879-0.193,2.357-0.584
		c0.478-0.389,0.717-0.966,0.717-1.731c0-0.792-0.256-1.355-0.768-1.691C100.965,61.902,100.169,61.735,99.09,61.735z"/>
	<path fill="white" d="M112.556,62.862c1.488,0,2.667,0.444,3.535,1.332c0.868,0.889,1.302,2.125,1.302,3.709v1.313h-7.337
		c0.027,1.012,0.307,1.794,0.84,2.347c0.533,0.553,1.271,0.83,2.213,0.83c0.71,0,1.353-0.072,1.927-0.215
		c0.574-0.144,1.161-0.353,1.763-0.625v2.07c-0.546,0.259-1.114,0.45-1.701,0.572c-0.588,0.124-1.292,0.186-2.111,0.186
		c-1.093,0-2.057-0.209-2.89-0.626c-0.833-0.416-1.486-1.044-1.957-1.885c-0.472-0.841-0.707-1.896-0.707-3.167
		c0-1.899,0.468-3.347,1.403-4.345C109.771,63.361,111.011,62.862,112.556,62.862z M112.556,64.769
		c-0.697,0-1.261,0.222-1.691,0.665c-0.431,0.444-0.68,1.104-0.748,1.979h4.775c-0.014-0.765-0.208-1.396-0.584-1.896
		C113.932,65.018,113.347,64.769,112.556,64.769z"/>
	<path fill="white" d="M127.558,70.958c0,1.12-0.399,1.971-1.199,2.552s-1.944,0.871-3.433,0.871
		c-0.779,0-1.445-0.056-1.999-0.164c-0.554-0.11-1.089-0.28-1.609-0.513v-2.193c0.546,0.261,1.151,0.479,1.814,0.655
		c0.663,0.178,1.288,0.267,1.875,0.267c0.71,0,1.223-0.108,1.538-0.327c0.314-0.218,0.471-0.512,0.471-0.881
		c0-0.219-0.061-0.414-0.185-0.584c-0.122-0.172-0.362-0.359-0.716-0.564c-0.356-0.205-0.895-0.458-1.62-0.758
		c-0.71-0.287-1.301-0.574-1.773-0.86c-0.471-0.288-0.827-0.629-1.065-1.025c-0.239-0.396-0.359-0.909-0.359-1.537
		c0-0.997,0.396-1.752,1.189-2.266c0.792-0.512,1.837-0.768,3.135-0.768c0.683,0,1.329,0.068,1.938,0.205
		c0.607,0.137,1.219,0.342,1.833,0.614l-0.819,1.906c-0.52-0.218-1.025-0.402-1.517-0.553c-0.492-0.15-0.998-0.226-1.517-0.226
		c-1.134,0-1.702,0.32-1.702,0.964c0,0.231,0.072,0.43,0.215,0.594c0.144,0.164,0.396,0.338,0.759,0.521
		c0.361,0.186,0.877,0.408,1.547,0.667c0.655,0.26,1.223,0.529,1.701,0.81c0.478,0.28,0.847,0.621,1.106,1.024
		C127.428,69.794,127.558,70.315,127.558,70.958z"/>
	<path fill="white" d="M139.896,63.067v11.108h-2.029l-0.348-1.436h-0.124c-0.354,0.574-0.847,0.991-1.475,1.251
		c-0.629,0.26-1.292,0.39-1.988,0.39c-1.244,0-2.217-0.321-2.921-0.964c-0.704-0.642-1.056-1.673-1.056-3.095v-7.255h2.582v6.742
		c0,0.835,0.164,1.455,0.492,1.865s0.848,0.615,1.558,0.615c1.039,0,1.752-0.327,2.142-0.984c0.39-0.655,0.584-1.591,0.584-2.807
		v-5.432H139.896z"/>
	<path fill="white" d="M155.922,62.862c1.258,0,2.203,0.321,2.839,0.963c0.636,0.644,0.953,1.682,0.953,3.115v7.235h-2.582v-6.743
		c0-1.653-0.629-2.48-1.886-2.48c-0.901,0-1.544,0.294-1.927,0.882c-0.383,0.587-0.573,1.441-0.573,2.563v5.779h-2.583v-6.743
		c0-1.653-0.634-2.48-1.905-2.48c-0.943,0-1.592,0.328-1.947,0.984s-0.533,1.592-0.533,2.808v5.432h-2.582V63.067h1.988l0.368,1.455
		h0.145c0.34-0.574,0.806-0.993,1.394-1.26c0.586-0.267,1.2-0.4,1.844-0.4c0.833,0,1.533,0.136,2.102,0.41
		c0.565,0.272,1.001,0.711,1.301,1.311h0.205c0.34-0.6,0.819-1.038,1.434-1.311C154.59,62.998,155.239,62.862,155.922,62.862z"/>
	<path fill="white" d="M167.42,62.862c1.488,0,2.668,0.444,3.535,1.332c0.868,0.889,1.302,2.125,1.302,3.709v1.313h-7.337
		c0.026,1.012,0.307,1.794,0.84,2.347s1.271,0.83,2.213,0.83c0.71,0,1.354-0.072,1.928-0.215c0.574-0.144,1.16-0.353,1.763-0.625
		v2.07c-0.547,0.259-1.113,0.45-1.702,0.572c-0.588,0.124-1.29,0.186-2.111,0.186c-1.093,0-2.057-0.209-2.89-0.626
		c-0.833-0.416-1.485-1.044-1.956-1.885c-0.473-0.841-0.708-1.896-0.708-3.167c0-1.899,0.468-3.347,1.403-4.345
		C164.635,63.361,165.876,62.862,167.42,62.862z M167.42,64.769c-0.696,0-1.262,0.222-1.691,0.665
		c-0.431,0.444-0.68,1.104-0.748,1.979h4.775c-0.014-0.765-0.207-1.396-0.584-1.896C168.796,65.018,168.213,64.769,167.42,64.769z"
		/>
	<path fill="white" d="M175.105,59.542h4.406c1.899,0,3.337,0.272,4.314,0.819c0.977,0.547,1.465,1.496,1.465,2.85
		c0,0.847-0.211,1.554-0.635,2.12c-0.424,0.568-1.032,0.926-1.824,1.076v0.103c0.533,0.11,1.015,0.288,1.445,0.533
		c0.43,0.246,0.775,0.605,1.035,1.077c0.259,0.47,0.388,1.089,0.388,1.854c0,1.326-0.47,2.356-1.413,3.095s-2.221,1.107-3.833,1.107
		h-5.349V59.542z M177.729,65.507h2.132c1.038,0,1.751-0.168,2.142-0.503c0.388-0.334,0.583-0.815,0.583-1.445
		c0-0.655-0.235-1.127-0.707-1.413c-0.472-0.288-1.212-0.431-2.223-0.431h-1.927V65.507z M177.729,67.617v4.365h2.377
		c1.065,0,1.807-0.207,2.224-0.625c0.416-0.417,0.626-0.96,0.626-1.629c0-0.643-0.215-1.154-0.646-1.537
		c-0.431-0.383-1.206-0.574-2.326-0.574H177.729z"/>
	<path fill="white" d="M198.326,63.067v11.108h-2.029l-0.349-1.436h-0.123c-0.354,0.574-0.848,0.991-1.476,1.251
		s-1.291,0.39-1.988,0.39c-1.243,0-2.217-0.321-2.921-0.964c-0.703-0.642-1.056-1.673-1.056-3.095v-7.255h2.583v6.742
		c0,0.835,0.164,1.455,0.492,1.865c0.327,0.41,0.848,0.615,1.559,0.615c1.038,0,1.751-0.327,2.142-0.984
		c0.389-0.655,0.583-1.591,0.583-2.807v-5.432H198.326z"/>
	<path fill="white" d="M202.918,58.784c0.382,0,0.716,0.099,1.004,0.297c0.287,0.198,0.43,0.55,0.43,1.056
		c0,0.505-0.143,0.86-0.43,1.065c-0.288,0.205-0.622,0.308-1.004,0.308c-0.397,0-0.735-0.103-1.016-0.308s-0.42-0.561-0.42-1.065
		c0-0.506,0.14-0.857,0.42-1.056S202.521,58.784,202.918,58.784z M204.209,63.067v11.108h-2.583V63.067H204.209z"/>
	<path fill="white" d="M210.091,74.176h-2.583V58.599h2.583V74.176z"/>
	<path fill="white" d="M217.059,74.381c-1.285,0-2.327-0.481-3.125-1.445c-0.801-0.963-1.199-2.394-1.199-4.294
		c0-1.913,0.402-3.354,1.209-4.324c0.806-0.97,1.864-1.455,3.177-1.455c0.819,0,1.492,0.157,2.019,0.472
		c0.525,0.313,0.946,0.696,1.26,1.146h0.123c-0.04-0.189-0.082-0.481-0.123-0.87c-0.04-0.39-0.06-0.762-0.06-1.117v-3.895h2.581
		v15.577h-2.009l-0.472-1.455h-0.101c-0.315,0.464-0.732,0.856-1.251,1.179C218.567,74.22,217.892,74.381,217.059,74.381z
		 M217.837,72.29c0.957,0,1.63-0.273,2.019-0.82c0.391-0.545,0.591-1.372,0.605-2.479v-0.327c0-1.19-0.188-2.102-0.564-2.737
		c-0.376-0.635-1.075-0.952-2.1-0.952c-0.793,0-1.398,0.324-1.814,0.974c-0.417,0.648-0.625,1.561-0.625,2.735
		c0,1.176,0.211,2.07,0.636,2.685C216.416,71.982,217.031,72.29,217.837,72.29z"/>
	<path fill="white" d="M230.688,62.862c1.488,0,2.668,0.444,3.535,1.332c0.867,0.889,1.302,2.125,1.302,3.709v1.313h-7.338
		c0.027,1.012,0.308,1.794,0.841,2.347s1.271,0.83,2.213,0.83c0.711,0,1.353-0.072,1.928-0.215c0.573-0.144,1.161-0.353,1.762-0.625
		v2.07c-0.546,0.259-1.113,0.45-1.701,0.572c-0.589,0.124-1.291,0.186-2.11,0.186c-1.094,0-2.057-0.209-2.892-0.626
		c-0.833-0.416-1.484-1.044-1.956-1.885s-0.707-1.896-0.707-3.167c0-1.899,0.468-3.347,1.403-4.345
		C227.902,63.361,229.143,62.862,230.688,62.862z M230.688,64.769c-0.697,0-1.261,0.222-1.691,0.665
		c-0.431,0.444-0.68,1.104-0.748,1.979h4.774c-0.012-0.765-0.207-1.396-0.583-1.896S231.479,64.769,230.688,64.769z"/>
	<path fill="white" d="M243.947,62.862c0.178,0,0.376,0.01,0.594,0.031c0.219,0.02,0.396,0.044,0.533,0.071l-0.226,2.397
		c-0.137-0.027-0.304-0.051-0.503-0.071c-0.197-0.021-0.365-0.031-0.501-0.031c-0.547,0-1.06,0.113-1.537,0.338
		c-0.479,0.227-0.863,0.57-1.159,1.036c-0.292,0.464-0.439,1.059-0.439,1.782v5.76h-2.582V63.067h1.988l0.368,1.927h0.122
		c0.328-0.588,0.779-1.09,1.354-1.507C242.532,63.071,243.195,62.862,243.947,62.862z"/>
</g>
<circle fill="#EF4136" cx="79.097" cy="71.774" r="2.722"/>
</svg>
