<?xml version="1.0" encoding="utf-8"?>
<!-- Generator: Adobe Illustrator 16.2.0, SVG Export Plug-In . SVG Version: 6.00 Build 0)  -->
<!DOCTYPE svg PUBLIC "-//W3C//DTD SVG 1.1 Basic//EN" "http://www.w3.org/Graphics/SVG/1.1/DTD/svg11-basic.dtd">
<svg version="1.1" baseProfile="basic" id="Слой_1"
	 xmlns="http://www.w3.org/2000/svg" xmlns:xlink="http://www.w3.org/1999/xlink" x="0px" y="0px" width="258px" height="84.25px"
	 viewBox="0 0 258 84.25" xml:space="preserve">
<polyline fill="none" stroke="#EF4136" stroke-width="4" stroke-miterlimit="10" points="43.749,4.917 5.583,4.917 5.583,74.917 "/>
<polyline fill="none" stroke="#EF4136" stroke-width="4" stroke-miterlimit="10" points="11.5,73 64,73 52.584,55.083 
	28.625,55.104 28.646,62.25 47.431,62.25 54.5,72.932 13.417,72.917 13.417,10.25 "/>
<path fill="none" stroke="#EF4136" stroke-width="4" stroke-miterlimit="10" d="M43.749,4.917c11.782,0,21.334,9.551,21.334,21.333
	s-9.552,21.333-21.334,21.333L28.583,47.75l0.167-35.167v6.667"/>
<polyline fill="none" stroke="#EF4136" stroke-width="4" stroke-miterlimit="10" points="20.917,67.75 20.917,12.083 30.75,12.083 
	"/>
<circle fill="none" stroke="#EF4136" stroke-width="4" stroke-miterlimit="10" cx="45.063" cy="26.688" r="9.188"/>
<text transform="matrix(1 0 0 1 89.5 74.75)" fill="#2F3030" font-family="'NotoSans-SemiBold'" font-size="16">ResumeBuilder</text>
<circle fill="#EF4136" cx="78.5" cy="72.875" r="2.125"/>
</svg>
